<svg width="27" height="27" viewBox="0 0 27 27" fill="none" xmlns="http://www.w3.org/2000/svg">
<g clip-path="url(#clip0_10_1169)">
<path d="M21.9375 4.21875H5.0625C4.59651 4.21875 4.21875 4.59651 4.21875 5.0625V21.9375C4.21875 22.4035 4.59651 22.7812 5.0625 22.7812H21.9375C22.4035 22.7812 22.7812 22.4035 22.7812 21.9375V5.0625C22.7812 4.59651 22.4035 4.21875 21.9375 4.21875Z" stroke="#B0DFE6" stroke-width="2" stroke-linecap="round" stroke-linejoin="round"/>
<path d="M18.5625 2.53125V5.90625" stroke="#B0DFE6" stroke-width="2" stroke-linecap="round" stroke-linejoin="round"/>
<path d="M8.4375 2.53125V5.90625" stroke="#B0DFE6" stroke-width="2" stroke-linecap="round" stroke-linejoin="round"/>
<path d="M4.21875 9.28125H22.7812" stroke="#B0DFE6" stroke-width="2" stroke-linecap="round" stroke-linejoin="round"/>
<path d="M13.5 15.1875C14.199 15.1875 14.7656 14.6209 14.7656 13.9219C14.7656 13.2229 14.199 12.6562 13.5 12.6562C12.801 12.6562 12.2344 13.2229 12.2344 13.9219C12.2344 14.6209 12.801 15.1875 13.5 15.1875Z" fill="#B0DFE6"/>
<path d="M18.1406 15.1875C18.8396 15.1875 19.4062 14.6209 19.4062 13.9219C19.4062 13.2229 18.8396 12.6562 18.1406 12.6562C17.4416 12.6562 16.875 13.2229 16.875 13.9219C16.875 14.6209 17.4416 15.1875 18.1406 15.1875Z" fill="#B0DFE6"/>
<path d="M8.85938 19.4062C9.55836 19.4062 10.125 18.8396 10.125 18.1406C10.125 17.4416 9.55836 16.875 8.85938 16.875C8.16039 16.875 7.59375 17.4416 7.59375 18.1406C7.59375 18.8396 8.16039 19.4062 8.85938 19.4062Z" fill="#B0DFE6"/>
<path d="M13.5 19.4062C14.199 19.4062 14.7656 18.8396 14.7656 18.1406C14.7656 17.4416 14.199 16.875 13.5 16.875C12.801 16.875 12.2344 17.4416 12.2344 18.1406C12.2344 18.8396 12.801 19.4062 13.5 19.4062Z" fill="#B0DFE6"/>
<path d="M18.1406 19.4062C18.8396 19.4062 19.4062 18.8396 19.4062 18.1406C19.4062 17.4416 18.8396 16.875 18.1406 16.875C17.4416 16.875 16.875 17.4416 16.875 18.1406C16.875 18.8396 17.4416 19.4062 18.1406 19.4062Z" fill="#B0DFE6"/>
</g>
<defs>
<clipPath id="clip0_10_1169">
<rect width="27" height="27" fill="white"/>
</clipPath>
</defs>
</svg>
