<svg width="79" height="79" viewBox="0 0 79 79" fill="none" xmlns="http://www.w3.org/2000/svg">
<mask id="mask0_10_299" style="mask-type:luminance" maskUnits="userSpaceOnUse" x="-1" y="0" width="80" height="79">
<path d="M78.9982 39.5C78.9982 17.6848 61.3134 0 39.4982 0C17.6829 0 -0.00183105 17.6848 -0.00183105 39.5C-0.00183105 61.3152 17.6829 79 39.4982 79C61.3134 79 78.9982 61.3152 78.9982 39.5Z" fill="white"/>
</mask>
<g mask="url(#mask0_10_299)">
<path d="M78.9983 39.5C78.9983 17.6848 61.3136 0 39.4983 0C17.6831 0 -0.00167847 17.6848 -0.00167847 39.5C-0.00167847 61.3152 17.6831 79 39.4983 79C61.3136 79 78.9983 61.3152 78.9983 39.5Z" fill="#B0DFE6"/>
<path d="M17.9634 113.649C22.646 99.1413 28.4979 85.0534 33.1186 70.5286C33.333 69.2916 34.3804 67.595 34.1649 66.4463C33.8355 65.6993 32.6187 65.6358 32.334 66.3681C27.5265 82.1984 20.8721 97.4035 16.0154 113.203C15.99 114.19 17.6109 114.57 17.9634 113.649Z" fill="#C7ECF1"/>
<path d="M-10.858 127.602C-6.18279 120.957 -1.94198 113.774 2.35009 106.798C11.1756 91.7851 21.1176 77.4975 29.783 62.3844C31.0145 60.2274 32.4273 58.1557 33.6382 56.0012C33.9259 55.0808 32.5478 54.3277 31.9768 55.1262C24.6039 67.4537 16.9999 79.6222 9.1453 91.635C2.77467 101.659 -3.15821 111.967 -9.64417 121.914C-10.4805 123.488 -11.721 124.95 -12.2529 126.641C-12.2741 127.323 -11.4756 127.862 -10.858 127.602Z" fill="#C7ECF1"/>
<path d="M1.47141 84.9143C8.26221 77.8291 15.0388 70.7314 21.8341 63.6481C23.7005 61.5116 26.1242 59.7585 27.9039 57.6037C28.203 56.6983 26.7477 55.9665 26.1629 56.7315C17.0891 65.5953 8.06679 74.6533 -0.448377 83.9511C-0.777608 84.9505 0.825452 85.7578 1.47141 84.9143Z" fill="#C7ECF1"/>
<path d="M-30.8626 74.1904C-16.3012 67.7835 -1.17087 62.4284 13.3568 55.9679C14.4575 55.2995 16.54 54.8817 17.248 53.9857C17.5645 53.2789 16.6892 52.4303 15.9168 52.7221C0.256016 59.9129 -16.3299 65.4699 -32.0035 72.6082C-32.7707 73.2373 -31.8282 74.5601 -30.8626 74.1904Z" fill="#C7ECF1"/>
<path d="M-63.3213 64.2409C-54.7318 62.9837 -46.0633 61.0848 -37.5136 59.3558C-19.4246 55.3622 -1.03881 52.5853 17.003 48.4207C19.575 47.8227 22.2186 47.4016 24.7713 46.7902C25.6889 46.3788 25.2146 44.9701 24.1747 45.1163C9.22565 48.3125 -5.77745 51.2502 -20.8535 53.9202C-33.2921 56.2696 -45.6166 59.0962 -58.0876 61.3183C-59.9164 61.7945 -61.9663 61.9319 -63.6527 62.6888C-64.1842 63.1211 -63.9873 64.0043 -63.3213 64.2409Z" fill="#C7ECF1"/>
<path d="M-21.5729 44.4321C-11.0424 44.2863 -0.515036 44.1233 10.0146 43.9839C13.0516 43.8213 16.2222 44.2767 19.2064 44.0425C20.1189 43.6464 19.5721 42.2032 18.5464 42.3168C4.93422 42.1152 -8.78383 42.0746 -22.3008 42.5295C-23.3074 42.9653 -22.7035 44.5567 -21.5729 44.4321Z" fill="#C7ECF1"/>
<path d="M-20.4771 85.6425C-5.99561 76.1893 7.73942 65.8256 22.1931 56.3375C24.705 54.4803 27.6779 53.1053 30.0303 51.1009C30.5866 50.2993 29.3314 49.2222 28.5214 49.8264C11.6264 60.6845 -4.75518 72.1915 -21.393 83.375C-21.8376 83.6735 -22.413 83.9313 -22.4558 84.5148C-22.5885 85.4652 -21.2724 86.2335 -20.4771 85.6425Z" fill="#C7ECF1"/>
<path d="M-37.1427 15.5838C-21.2301 21.0276 -5.68454 27.5366 10.242 32.9235C11.585 33.2147 13.4828 34.3188 14.6993 34.2022C15.4767 33.9483 15.4557 32.8129 14.6476 32.4921C-2.6935 26.8346 -19.4985 19.4927 -36.8085 13.7922C-37.8677 13.6955 -38.1561 15.1883 -37.1427 15.5838Z" fill="#C7ECF1"/>
<path d="M-54.2291 -12.4334C-46.7562 -7.56895 -38.7366 -3.07341 -30.9358 1.45639C-14.178 10.8182 1.88383 21.1752 18.7381 30.3931C21.1428 31.7045 23.4693 33.1796 25.8705 34.4701C26.8791 34.807 27.5872 33.5695 26.6879 32.9777C12.9182 25.1731 -0.697289 17.1621 -14.1653 8.9272C-25.3891 2.22861 -36.8858 -4.08066 -48.0379 -10.8824C-49.7871 -11.781 -51.4474 -13.0486 -53.3011 -13.6706C-54.0349 -13.739 -54.5559 -13.0303 -54.2291 -12.4334Z" fill="#C7ECF1"/>
<path d="M-7.51596 2.22857C0.58648 9.10655 8.70083 15.9735 16.8 22.8549C19.2291 24.7597 21.2898 27.158 23.7314 28.9807C24.7255 29.3259 25.404 28.0173 24.5403 27.4134C14.3619 18.2665 3.98078 9.15436 -6.62232 0.499092C-7.7193 0.118945 -8.47002 1.56106 -7.51596 2.22857Z" fill="#C7ECF1"/>
<path d="M-37.9474 29.9726C-19.7857 33.3654 -1.4979 35.6676 16.6694 39.0192C19.9847 39.4664 23.2831 40.5323 26.5914 40.7774C27.6217 40.6205 27.4863 39.0824 26.4134 38.9426C5.35487 34.8719 -15.8094 31.566 -36.9209 27.8802C-37.4855 27.7802 -38.1179 27.5697 -38.5919 27.9234C-39.4164 28.458 -39.0001 29.8317 -37.9474 29.9726Z" fill="#C7ECF1"/>
<path d="M1.34019 -26.9434C9.28454 -12.8344 16.1418 1.73055 24.1398 15.8111C24.9375 16.8912 25.5403 18.872 26.5513 19.6015C27.3331 19.9498 28.1795 19.1918 27.81 18.4468C18.9454 3.25126 11.7637 -12.6928 2.95464 -27.8964C2.22196 -28.6619 0.871388 -27.8756 1.34019 -26.9434Z" fill="#C7ECF1"/>
<path d="M9.63339 -56.6254C11.6125 -48.4873 14.2863 -40.2281 16.7699 -32.0905C22.3825 -14.8532 26.7126 2.57376 32.5046 19.7807C33.3343 22.2341 33.9803 24.7402 34.8237 27.1784C35.3345 28.0674 36.8101 27.7253 36.5764 26.7417C32.0494 12.5045 27.796 -1.76591 23.8242 -16.0837C20.3898 -27.9087 16.4533 -39.6606 13.1525 -51.5051C12.5071 -53.2521 12.2083 -55.1832 11.2735 -56.8196C10.7719 -57.3518 9.84044 -57.2329 9.63339 -56.6254Z" fill="#C7ECF1"/>
<path d="M33.9553 -16.0712C34.8836 -6.19587 35.8298 3.67922 36.7546 13.5547C37.1533 16.4111 36.8959 19.3495 37.3653 22.1623C37.857 23.0462 39.3666 22.6381 39.1691 21.6703C38.3863 8.93252 37.423 -3.91619 35.945 -16.6134C35.4017 -17.5877 33.7383 -17.1382 33.9553 -16.0712Z" fill="#C7ECF1"/>
<path d="M-10.1885 -18.0471C1.01756 -3.79093 13.1482 9.8318 24.3917 24.0639C26.5683 26.5528 28.262 29.4372 30.5864 31.7883C31.4874 32.3681 32.5517 31.2693 31.8438 30.4679C18.9531 13.8492 5.40203 -2.33652 -7.82064 -18.7387C-8.1735 -19.177 -8.49231 -19.7348 -9.12146 -19.8176C-10.1541 -20.0128 -10.8802 -18.8367 -10.1885 -18.0471Z" fill="#C7ECF1"/>
<path d="M64.6508 -28.4973C59.7354 -14.0715 53.6544 -0.0816002 48.8007 14.3629C48.567 15.5946 47.4928 17.2747 47.6875 18.4258C48.005 19.1756 49.2229 19.2572 49.5185 18.5282C54.5822 2.78337 61.4826 -12.3129 66.5931 -28.0259C66.6334 -29.0101 65.0168 -29.4126 64.6508 -28.4973Z" fill="#C7ECF1"/>
<path d="M93.7205 -42.035C88.936 -35.4638 84.5772 -28.3465 80.1714 -21.4375C71.1007 -6.56377 60.9219 7.56902 52.0092 22.544C50.7428 24.6824 49.2956 26.731 48.0498 28.867C47.7463 29.7821 49.1161 30.5546 49.698 29.7639C57.2721 17.5531 65.0765 5.50398 73.1279 -6.38582C79.6623 -16.3092 85.7655 -26.5238 92.4144 -36.3699C93.2768 -37.9283 94.5413 -39.3719 95.1 -41.0546C95.1325 -41.7379 94.3425 -42.2887 93.7205 -42.035Z" fill="#C7ECF1"/>
<path d="M80.7079 0.433508C73.7987 7.41695 66.9038 14.413 59.9891 21.3925C58.0874 23.499 55.6335 25.2182 53.8176 27.3457C53.5049 28.2454 54.9498 28.997 55.5471 28.2406C64.7699 19.511 73.9433 10.5901 82.614 1.41974C82.9592 0.429053 81.3678 -0.40087 80.7079 0.433508Z" fill="#C7ECF1"/>
<path d="M49.1648 -30.5188C46.5795 -13.8043 45.1711 3.12303 42.632 19.8464C42.3456 22.9131 41.393 25.9081 41.3219 28.9858C41.5501 29.9654 43.1935 29.9733 43.2798 28.9816C46.4242 9.61354 48.7411 -9.92027 51.4696 -29.3722C51.5436 -29.8918 51.7343 -30.4659 51.3261 -30.9412C50.7049 -31.7615 49.2557 -31.4922 49.1648 -30.5188Z" fill="#C7ECF1"/>
<path d="M113.327 11.0644C98.6507 17.2628 83.4205 22.4031 68.7766 28.6542C67.6633 29.3059 65.5733 29.6961 64.849 30.5803C64.5205 31.2818 65.384 32.1414 66.1619 31.8616C81.9514 24.8966 98.6423 19.5749 114.443 12.6618C115.222 12.0427 114.299 10.7075 113.327 11.0644Z" fill="#C7ECF1"/>
<path d="M145.659 21.449C137.041 22.5868 128.335 24.3626 119.748 25.9717C101.578 29.7102 83.1306 32.2305 65.0042 36.1415C62.4209 36.7039 59.7687 37.0873 57.2017 37.6616C56.2772 38.0603 56.7301 39.4726 57.7722 39.3418C72.7851 36.3565 87.8506 33.6286 102.983 31.171C115.471 28.995 127.852 26.3437 140.37 24.2958C142.207 23.8458 144.261 23.736 145.964 23.0042C146.506 22.5798 146.322 21.6955 145.659 21.449Z" fill="#C7ECF1"/>
<path d="M103.557 40.6591C93.0153 40.6589 82.4748 40.6754 71.9309 40.6712C68.8885 40.7926 65.723 40.2925 62.732 40.4849C61.811 40.8674 62.3374 42.3166 63.3653 42.2185C76.9873 42.6072 90.7175 42.8376 104.257 42.5703C105.27 42.1472 104.691 40.5488 103.557 40.6591Z" fill="#C7ECF1"/>
<path d="M103.113 -0.519036C88.4677 8.7223 74.5558 18.8845 59.9375 28.1633C57.3937 29.9825 54.3976 31.3167 52.0087 33.2856C51.4386 34.0782 52.6789 35.1728 53.4985 34.5794C70.5812 23.968 87.1606 12.7008 103.992 1.75986C104.442 1.46733 105.021 1.21755 105.072 0.636104C105.222 -0.3132 103.919 -1.09731 103.113 -0.519036Z" fill="#C7ECF1"/>
<path d="M119.137 69.6444C103.297 63.9845 87.8405 57.2632 71.9844 51.6612C70.6455 51.3522 68.7625 50.2223 67.5424 50.3226C66.7609 50.565 66.7625 51.7002 67.5663 52.0305C84.8333 57.9243 101.537 65.4941 118.773 71.4309C119.832 71.5406 120.146 70.0541 119.137 69.6444Z" fill="#C7ECF1"/>
<path d="M135.791 97.868C128.389 92.9053 120.433 88.3013 112.697 83.6671C96.0724 74.0816 80.162 63.5122 63.4403 54.0673C61.053 52.7243 58.7488 51.2187 56.3654 49.8955C55.3612 49.5444 54.6331 50.7697 55.5236 51.3739C69.181 59.3628 82.6819 67.5553 96.0296 75.9677C107.156 82.815 118.565 89.2783 129.616 96.229C131.352 97.1507 132.993 98.441 134.84 99.0872C135.575 99.1693 136.108 98.4693 135.791 97.868Z" fill="#C7ECF1"/>
<path d="M89.2671 82.5683C81.2677 75.5847 73.256 68.6134 65.2606 61.625C62.8609 59.6895 60.8368 57.2651 58.4209 55.4081C57.431 55.0487 56.7301 56.3474 57.587 56.9629C67.6292 66.2417 77.8731 75.4882 88.3481 84.282C89.4365 84.6776 90.2107 83.2475 89.2671 82.5683Z" fill="#C7ECF1"/>
<path d="M120.174 55.2855C102.048 51.6411 83.7802 49.084 65.6484 45.4822C62.3365 44.9898 59.0528 43.8783 55.7448 43.5864C54.7104 43.7286 54.8223 45.2676 55.8928 45.421C76.9068 49.7831 98.0382 53.3822 119.112 57.3607C119.675 57.468 120.305 57.6888 120.785 57.341C121.62 56.8191 121.226 55.4404 120.174 55.2855Z" fill="#C7ECF1"/>
<path d="M80.8639 111.356C72.8546 97.2775 65.9296 82.7365 57.8661 68.6839C57.0634 67.6064 56.4525 65.6286 55.4365 64.9018C54.6535 64.5564 53.8104 65.319 54.1841 66.0627C63.1199 81.226 70.3749 97.1454 79.2552 112.317C79.9897 113.078 81.3375 112.286 80.8639 111.356Z" fill="#C7ECF1"/>
<path d="M72.7164 141.083C70.6976 132.95 67.9863 124.699 65.4647 116.57C59.771 99.3511 55.3584 81.9369 49.4845 64.7496C48.643 62.299 47.9855 59.7945 47.1301 57.3591C46.6151 56.4715 45.1424 56.8195 45.3796 57.8031C49.9737 72.0259 54.2943 86.2817 58.3334 100.588C61.8223 112.403 65.8145 124.142 69.172 135.976C69.825 137.721 70.1332 139.651 71.0754 141.283C71.5806 141.815 72.5139 141.692 72.7164 141.083Z" fill="#C7ECF1"/>
<path d="M48.2072 100.619C47.2322 90.744 46.237 80.8703 45.266 70.9942C44.8545 68.1386 45.0966 65.1984 44.614 62.3865C44.1183 61.5039 42.6114 61.9182 42.8141 62.8866C43.6588 75.6253 44.6827 88.4747 46.223 101.168C46.77 102.143 48.4299 101.685 48.2072 100.619Z" fill="#C7ECF1"/>
<path d="M92.3468 102.409C81.0755 88.1961 68.8836 74.6195 57.575 60.4304C55.3876 57.9496 53.6803 55.0722 51.3452 52.7295C50.4409 52.1532 49.3834 53.2563 50.0939 54.0558C63.0615 70.6254 76.6849 86.76 89.9834 103.111C90.3385 103.549 90.6593 104.106 91.2887 104.184C92.3209 104.375 93.0418 103.196 92.3468 102.409Z" fill="#C7ECF1"/>
<path d="M31.4653 115.022C31.3077 116.244 33.4232 116.625 33.5452 115.363C35.2013 99.4235 36.5233 83.4183 38.8259 67.5839C39.3532 63.6383 40.283 59.701 40.5191 55.7308C40.2637 54.7602 38.6334 54.7841 38.5626 55.7727C35.4524 75.3871 33.0062 95.1397 31.4653 115.022Z" fill="#C7ECF1"/>
<path fill-rule="evenodd" clip-rule="evenodd" d="M68.8228 65.7743C63.4875 71.7616 56.4089 76.1209 48.2414 77.9703C45.4088 66.4267 41.2707 57.6068 35.9356 51.506C24.1747 50.0923 15.1363 45.0837 8.9278 36.2616H37.6766C41.8145 27.3326 49.3291 22.5419 60.4376 21.996C64.5755 27.115 67.6262 31.2528 69.6931 36.2616C72.4171 42.7951 75.5758 54.0125 70.5635 57.7152C69.5841 58.3678 67.6262 59.4558 65.3374 59.5649C66.0989 62.2888 67.2957 64.3595 68.8228 65.7743Z" fill="#FCEDC6"/>
<path d="M54.3373 34.3014H46.8231V37.3519H54.3373V34.3014Z" fill="#F3A361"/>
<path fill-rule="evenodd" clip-rule="evenodd" d="M49.8727 77.5357C48.7852 77.8616 47.6972 78.0793 46.6052 78.2972C45.8437 75.029 44.9732 71.9791 43.994 69.2594C41.5966 62.6152 38.6556 57.1713 35.1741 53.0334C29.2915 52.2719 24.0656 50.636 19.4924 48.1334C14.8105 45.4099 10.8896 41.8161 7.62216 37.2429L5.7688 34.6299H36.5887C41.1619 25.699 49.0026 20.908 60.3288 20.3637L61.1991 20.2554L61.7436 20.908C63.814 23.521 65.6639 25.9167 67.1869 28.3137C68.8229 30.7093 70.1283 33.1046 71.2163 35.7179C72.8516 39.6403 74.5929 45.1924 74.8104 49.9834C75.0276 53.7949 74.1573 57.0624 71.5462 59.0212C70.2374 60.0041 67.4044 61.5272 64.1406 61.2007C61.961 60.9832 59.6764 60.0041 57.4967 57.6066C55.9731 55.9744 54.7727 52.3803 54.1201 48.0248C53.2493 43.0127 52.9237 36.8075 52.9237 31.2529H56.191C56.191 36.6986 56.5171 42.6862 57.279 47.4771C57.9316 51.2888 58.8021 54.23 59.8941 55.4269C61.5257 57.0624 63.049 57.7153 64.4673 57.9332C66.752 58.1509 68.714 57.0624 69.5841 56.4098C71.2163 55.2092 71.651 52.8157 71.5462 50.0924C71.434 45.7364 69.6932 40.619 68.1698 36.9163C67.1869 34.5211 65.99 32.3431 64.4673 30.0543C63.049 27.9854 61.5257 25.9167 59.6764 23.6296C49.7641 24.3935 42.9023 28.7488 39.0949 37.0252L38.6556 37.8955H12.304C14.8105 40.9455 17.7476 43.3388 21.1242 45.1924C25.4795 47.5861 30.4883 49.2217 36.1533 49.8745L37.2413 50.4183C41.1619 54.8833 44.4294 60.8742 47.0408 68.0625C48.0235 71.0002 49.0026 74.1591 49.8727 77.5357Z" fill="#1E1E1E"/>
<path fill-rule="evenodd" clip-rule="evenodd" d="M69.9106 64.5773C69.2576 65.4476 68.4963 66.2093 67.7349 66.9708C65.99 65.3387 64.5755 63.0504 63.7054 60.0043L66.8608 59.13C67.626 61.5274 68.6049 63.2676 69.9106 64.5773Z" fill="#1E1E1E"/>
<path fill-rule="evenodd" clip-rule="evenodd" d="M43.6679 33.9751C44.9731 33.9751 46.0614 35.0649 46.0614 36.3725C46.0614 37.7866 44.9731 38.8768 43.6679 38.8768C42.3585 38.8768 41.2704 37.7866 41.2704 36.3725C41.2704 35.0649 42.3585 33.9751 43.6679 33.9751Z" stroke="#1E1E1E" stroke-width="1.85064" stroke-miterlimit="2"/>
<path fill-rule="evenodd" clip-rule="evenodd" d="M40.8351 29.0756C44.5382 29.0756 47.5883 32.1236 47.5883 35.8268C47.5883 39.4204 44.5382 42.4685 40.8351 42.4685C37.2413 42.4685 34.1914 39.4204 34.1914 35.8268C34.1914 32.1236 37.2413 29.0756 40.8351 29.0756Z" fill="white"/>
<path d="M40.8351 27.5504C43.1237 27.5504 45.1909 28.5313 46.7143 30.0545C48.1325 31.4708 49.1115 33.5397 49.1115 35.8268C49.1115 38.0043 48.1325 40.075 46.7143 41.5984C45.1909 43.0129 43.1237 43.9956 40.8351 43.9956C38.6556 43.9956 36.5884 43.0129 35.0653 41.5984C33.647 40.075 32.6678 38.0043 32.6678 35.8268C32.6678 33.5397 33.647 31.4708 35.0653 30.0545C36.5884 28.5313 38.6556 27.5504 40.8351 27.5504ZM44.538 32.1236C43.5591 31.2529 42.2497 30.6005 40.8351 30.6005C39.4208 30.6005 38.1112 31.2529 37.2413 32.1236C36.2619 33.1046 35.7177 34.41 35.7177 35.8268C35.7177 37.2428 36.2619 38.5501 37.2413 39.4204C38.1112 40.4015 39.4208 40.9455 40.8351 40.9455C42.2497 40.9455 43.5591 40.4015 44.538 39.4204C45.4086 38.5501 46.0616 37.2428 46.0616 35.8268C46.0616 34.41 45.4086 33.1046 44.538 32.1236Z" fill="#F3A361"/>
<path fill-rule="evenodd" clip-rule="evenodd" d="M40.8351 33.3223C42.2499 33.3223 43.3416 34.4101 43.3416 35.8268C43.3416 37.134 42.2499 38.222 40.8351 38.222C39.5296 38.222 38.4379 37.134 38.4379 35.8268C38.4379 34.4101 39.5296 33.3223 40.8351 33.3223Z" fill="#1E1E1E"/>
<path fill-rule="evenodd" clip-rule="evenodd" d="M41.5966 34.521C42.0322 34.521 42.2499 34.7382 42.2499 35.0648C42.2499 35.5002 42.0322 35.7178 41.5966 35.7178C41.2707 35.7178 41.0528 35.5002 41.0528 35.0648C41.0528 34.7382 41.2707 34.521 41.5966 34.521Z" fill="white"/>
<path fill-rule="evenodd" clip-rule="evenodd" d="M53.3579 65.5564C51.0696 67.2971 49.1114 69.1505 48.1325 71.544C48.7849 73.3972 49.3289 75.4646 49.8725 77.5357C56.7345 75.6818 62.9397 71.9794 67.7346 66.9708C66.2075 65.5564 65.0109 63.7032 64.1405 61.0918C62.7225 60.9832 61.3077 60.5478 59.7848 59.5649C57.9316 61.9622 55.5377 63.7032 53.3579 65.5564Z" fill="white"/>
<path fill-rule="evenodd" clip-rule="evenodd" d="M48.1328 71.5439C49.1115 69.1505 51.0698 67.297 53.3582 65.5564C51.2875 63.1587 48.1328 62.071 44.1031 61.0918C45.1909 63.2676 46.1701 65.5564 47.0408 68.0624C47.3709 69.2593 47.8058 70.3473 48.1328 71.5439Z" fill="white"/>
<path d="M62.3958 58.8034C60.5463 61.8532 57.9316 63.9245 55.4291 65.8826C51.9436 68.7152 48.7849 71.2176 49.2201 75.4645L46.0616 75.7906C45.4086 69.8037 49.2201 66.753 53.3579 63.3766C55.6465 61.6362 58.04 59.6735 59.5673 57.1711L62.3958 58.8034Z" fill="#1E1E1E"/>
<path d="M42.3585 59.0211C44.9732 59.5649 47.2583 60.2217 49.3289 60.9832C51.4001 61.8533 53.1407 62.9413 54.555 64.4684L52.0525 66.6442C51.0696 65.4473 49.7641 64.5772 48.1325 63.9244C46.2787 63.2676 44.2117 62.724 41.7054 62.1796L42.3585 59.0211Z" fill="#1E1E1E"/>
<path fill-rule="evenodd" clip-rule="evenodd" d="M0.624298 32.8873C8.13936 15.5713 24.2561 2.93955 43.6407 0.217635C42.2225 0.108817 40.917 0 39.5025 0C20.0089 0 3.78297 14.2657 0.624298 32.8873Z" fill="#E3FCFF"/>
</g>
</svg>
