<svg width="446" height="422" viewBox="0 0 446 422" fill="none" xmlns="http://www.w3.org/2000/svg">
<path d="M342.983 274.839C359.191 282.304 379.07 274.82 387.384 258.123C395.697 241.427 389.298 221.84 373.09 214.375C356.882 206.91 337.003 214.394 328.69 231.091C320.376 247.788 326.776 267.375 342.983 274.839Z" fill="#ECF7F9"/>
<path d="M96.4692 161.304C112.677 168.769 134.027 158.329 144.157 137.986C154.286 117.642 149.358 95.0995 133.151 87.6348C116.943 80.17 95.5923 90.6101 85.463 110.953C75.3337 131.296 80.2613 153.839 96.4692 161.304Z" fill="#ECF7F9"/>
<path d="M203.03 121.185C219.237 128.65 240.613 118.161 250.772 97.7565C260.932 77.3523 256.029 54.7601 239.821 47.2953C223.613 39.8306 202.238 50.32 192.078 70.7242C181.919 91.1284 186.822 113.721 203.03 121.185Z" fill="#ECF7F9"/>
<path d="M308.678 169.844C324.886 177.308 346.366 166.609 356.654 145.947C366.942 125.284 362.143 102.483 345.936 95.018C329.728 87.5532 308.248 98.2521 297.96 118.915C287.672 139.577 292.47 162.379 308.678 169.844Z" fill="#ECF7F9"/>
<path d="M237.79 181.793C226.341 176.525 213.295 175.231 200.617 178.106C187.939 180.981 176.315 187.868 167.495 197.732C154.5 212.23 136.59 221.282 117.671 222.914C104.054 223.862 91.0477 230.048 81.3721 240.176C71.6965 250.305 66.1007 263.593 65.7548 277.262C65.4088 290.93 70.3395 303.921 79.5158 313.517C88.6922 323.113 101.404 328.573 114.992 328.753C146.287 329.74 175.277 343.092 195.696 365.922C204.361 375.991 216.752 382.093 230.278 382.953C243.805 383.813 257.419 379.363 268.275 370.535C279.131 361.707 286.387 349.184 288.526 335.584C290.665 321.984 287.522 308.361 279.754 297.564C269.224 282.366 265.339 263.275 268.947 244.458C271.408 231.665 269.7 218.637 264.081 207.335C258.462 196.033 249.235 187.07 237.79 181.793Z" fill="#ECF7F9"/>
</svg>
