<svg width="85" height="85" viewBox="0 0 85 85" fill="none" xmlns="http://www.w3.org/2000/svg">
<path d="M81.7812 42.3906C81.7812 20.6358 64.1454 3 42.3906 3C20.6358 3 3 20.6358 3 42.3906C3 64.1454 20.6358 81.7812 42.3906 81.7812C64.1454 81.7812 81.7812 64.1454 81.7812 42.3906Z" fill="#B0DFE6"/>
<path d="M83.2812 42.3906C83.2812 19.8073 64.9738 1.5 42.3906 1.5C19.8073 1.5 1.5 19.8073 1.5 42.3906C1.5 64.9738 19.8073 83.2812 42.3906 83.2812C64.9738 83.2812 83.2812 64.9738 83.2812 42.3906Z" stroke="white" stroke-opacity="0.74" stroke-width="3"/>
<path d="M34.9695 75.4245C40.6034 73.0197 43.45 67.1056 42.3289 61.5084C41.9118 59.4264 42.5117 57.2691 43.8763 55.6421C45.3631 53.8695 47.6265 52.9012 49.9269 53.1454C51.5824 53.3213 53.3132 52.9762 54.8657 52.0304C58.2281 49.9819 59.5654 45.6612 57.9471 42.0716C56.0592 37.8839 51.0684 36.2131 47.0679 38.3242C44.2182 39.8281 42.6692 42.8301 42.8784 45.85C42.8955 46.0967 42.9491 46.4026 43.0275 46.7361C43.5085 48.7737 42.7379 50.9038 41.0733 52.1735C39.4633 53.4019 37.3093 53.582 35.4818 52.7095C32.0495 51.0708 27.9144 51.0179 24.2919 52.9294C17.9273 56.2883 15.6703 64.3776 19.5631 70.5908C22.7888 75.7389 29.3819 77.8094 34.9695 75.4245Z" fill="#C7ECF1"/>
<path d="M31.9993 26.9607C27.6939 28.0827 24.7753 32.2266 25.1812 36.6574C25.2836 37.7728 25.5762 38.8133 26.0202 39.7565C26.3844 40.5303 26.2984 41.4407 25.8097 42.1429L25.5445 42.5237C25.1882 43.036 24.588 43.3284 23.9662 43.2756C23.7017 43.2533 23.4294 43.2671 23.1558 43.3214C22.141 43.5231 21.3564 44.2302 21.0106 45.1292C20.6068 46.1794 19.6248 46.8972 18.514 47.0746L17.9978 47.1571C17.0513 47.3081 16.069 47.0482 15.3687 46.3943C14.268 45.3666 12.6753 44.9007 11.0832 45.3312C9.00049 45.8944 7.47216 48.2342 7.78993 50.3683C8.17439 52.9495 10.6301 54.6567 13.1598 54.154C14.9519 53.7979 16.2828 52.4309 16.6819 50.7636C16.9428 49.6742 17.7156 48.7805 18.7752 48.4179L19.2109 48.2688C20.1776 47.9379 21.2626 48.022 22.1126 48.589C22.8063 49.0516 23.6975 49.2168 24.5808 48.9472C25.8743 48.552 26.7378 47.262 26.6161 45.9148C26.6004 45.7419 26.5704 45.5745 26.5269 45.4139C26.3347 44.7027 26.5912 43.947 27.1921 43.5207L27.2534 43.4774C27.841 43.0603 28.6191 43.071 29.2177 43.4724C31.3021 44.8703 33.9546 45.4198 36.6137 44.7418C41.0817 43.6026 44.0454 39.2245 43.4388 34.6537C42.7094 29.157 37.3577 25.5641 31.9993 26.9607Z" fill="#C7ECF1"/>
<path d="M15.3636 35.2542C18.4674 35.0682 21.0558 32.6564 21.4638 29.5739C21.571 28.7642 21.5289 27.9759 21.3605 27.2336C21.1314 26.2233 21.3268 25.1645 21.9401 24.3296C22.7574 23.2171 24.1651 22.6891 25.5035 23.0275C26.0628 23.169 26.6561 23.2285 27.271 23.1916C29.9682 23.0298 32.2255 20.9414 32.5936 18.2647C33.0894 14.6575 30.1892 11.5215 26.5521 11.7363C23.865 11.8948 21.6123 13.9691 21.2317 16.6341C21.081 17.6909 21.2226 18.7076 21.589 19.6122C22.0392 20.7231 21.7155 21.9944 20.7368 22.6858L20.6907 22.7182C19.9224 23.2609 18.9048 23.357 18.0783 22.9081C17.0472 22.3481 15.8465 22.0546 14.5644 22.1255C11.4678 22.2965 8.86955 24.6813 8.4377 27.7523C7.85514 31.8968 11.186 35.5048 15.3636 35.2542Z" fill="#C7ECF1"/>
<path d="M56.9927 22.2532L56.952 21.9619C56.7435 20.4627 57.0987 18.918 58.0283 17.7238C59.3336 16.0471 59.7903 13.7469 58.9822 11.5537C57.9119 8.64875 54.8317 6.9076 51.7906 7.48787C50.2548 7.7808 48.9695 8.58402 48.0579 9.67754C47.2497 10.6472 45.9925 11.1218 44.7414 10.9535L39.5709 10.2572C38.7391 10.145 38.0047 9.70304 37.4449 9.07798C36.704 8.25055 35.5161 7.88212 34.3755 8.25546C32.9557 8.72 32.1051 10.2523 32.4598 11.7034C32.8509 13.3027 34.4821 14.2517 36.0575 13.8159C36.6024 13.6652 37.0677 13.3687 37.4231 12.9803C38.3658 11.9499 39.8484 11.6047 41.1934 11.98L44.2201 12.8244C45.4929 13.1794 46.4453 14.1994 46.7934 15.4737C46.7954 15.4805 46.7969 15.4871 46.7989 15.494C47.4092 17.7006 49.1026 19.3159 51.1454 19.9262C52.7532 20.4064 54.0472 21.6056 54.6687 23.164L54.684 23.2029C55.3355 24.8368 55.1613 26.6772 54.2387 28.1749C53.5767 29.2494 53.3627 30.5953 53.771 31.9052C54.4661 34.1347 56.8227 35.4935 59.0999 34.9753C61.6397 34.3973 63.1563 31.8256 62.4693 29.3433C62.1137 28.0579 61.2388 27.0576 60.1344 26.5037C58.4585 25.6629 57.2512 24.1117 56.9927 22.2532Z" fill="#C7ECF1"/>
<path d="M78.4529 42.525C80.3579 38.6419 78.6149 33.9177 74.5526 32.2399C71.107 30.8172 67.0645 32.1823 65.1893 35.4045C63.5773 38.1743 63.9283 41.4761 65.7289 43.8113C66.5218 44.8394 66.6502 46.2336 66.1189 47.4184L66.0064 47.6696C65.5705 48.6423 64.7148 49.3372 63.6988 49.6604C62.835 49.9354 62.0949 50.5917 61.7518 51.5378C61.2714 52.8613 61.7896 54.3846 62.9777 55.14C64.5426 56.1355 66.5769 55.532 67.3706 53.9141C67.7413 53.1585 67.7709 52.3247 67.5188 51.5864C67.1732 50.5729 67.3577 49.4525 67.9193 48.541L67.988 48.4292C68.6694 47.3228 69.8971 46.6371 71.1944 46.7225C74.15 46.9177 77.0675 45.3489 78.4529 42.525Z" fill="#C7ECF1"/>
<path d="M53.0935 58.3832C53.2926 59.3097 53.8979 60.0227 54.6704 60.3963C55.7075 60.8983 56.4636 61.8391 56.7174 62.9626L56.8295 63.4591C57.0927 64.6246 56.8367 65.8711 56.0552 66.7754C55.107 67.8735 54.7398 69.4283 55.2344 70.9138C55.9353 73.0185 58.2095 74.2554 60.3558 73.6958C62.73 73.077 64.0811 70.6111 63.3604 68.295C62.9282 66.9062 61.8522 65.8963 60.5624 65.491C59.4012 65.1262 58.446 64.2938 58.0291 63.1503L57.893 62.777C57.4781 61.6399 57.688 60.3961 58.3567 59.3872C58.8226 58.6848 58.9806 57.7862 58.7106 56.9183C58.2011 55.2818 56.3782 54.4172 54.7621 55.1232C53.5169 55.6677 52.8081 57.0544 53.0935 58.3832Z" fill="#C7ECF1"/>
<path d="M49.058 66.9699C48.4214 67.1106 47.9117 67.6288 47.7771 68.2668C47.6902 68.6793 47.7526 69.0723 47.92 69.4036C48.1209 69.8021 48.0782 70.2811 47.8552 70.6676L47.7428 70.8624C47.488 71.3038 47.0086 71.5522 46.4991 71.5395C46.2763 71.5338 46.0474 71.5535 45.8144 71.6018C44.6331 71.8471 43.7037 72.8288 43.5269 74.0224C43.2426 75.94 44.8163 77.5732 46.7169 77.3905C48.0577 77.2616 49.1628 76.195 49.3346 74.8592C49.4486 73.972 49.1648 73.1514 48.6378 72.5479C48.3286 72.1936 48.2579 71.6885 48.4139 71.2449C48.5899 70.7451 49.0383 70.3798 49.5665 70.3442C49.6637 70.3376 49.7624 70.3229 49.8624 70.2995C50.483 70.1529 50.9802 69.6478 51.1168 69.0255C51.3908 67.779 50.3045 66.6935 49.058 66.9699Z" fill="#C7ECF1"/>
<path d="M69.7921 26.2042C70.3118 25.5475 70.3991 24.6175 70.0155 23.8731C69.7674 23.3915 69.3864 23.0506 68.9505 22.8564C68.4268 22.6226 68.081 22.1107 67.9893 21.5448L67.9434 21.2594C67.8388 20.6131 68.1149 19.9766 68.6327 19.5758C68.8594 19.4006 69.0715 19.195 69.2643 18.9576C70.2418 17.7546 70.3709 16.0226 69.5789 14.6901C68.3058 12.5489 65.4127 12.1987 63.6673 13.9235C62.4366 15.1399 62.2009 17.0995 63.1139 18.5696C63.7203 19.5457 64.6689 20.1329 65.6834 20.3068C66.2793 20.4088 66.7592 20.8544 66.9643 21.4232C67.1947 22.0636 67.0439 22.7917 66.5468 23.2559C66.4553 23.3412 66.3688 23.436 66.2885 23.5406C65.7889 24.1898 65.7036 25.0967 66.0727 25.828C66.8111 27.2916 68.7736 27.491 69.7921 26.2042Z" fill="#C7ECF1"/>
<path d="M48.8623 24.3382C48.9127 23.5023 48.4522 22.6896 47.7117 22.2983C47.2324 22.0452 46.7247 21.9838 46.2566 22.0737C45.6933 22.1815 45.1167 21.9599 44.7178 21.548L44.5167 21.3404C44.061 20.87 43.9234 20.19 44.1188 19.5649C44.2042 19.2916 44.2608 19.0017 44.2829 18.6967C44.3965 17.1507 43.5111 15.6564 42.099 15.0169C39.8294 13.9891 37.2568 15.3579 36.8121 17.7709C36.4985 19.4728 37.4266 21.2149 39.0169 21.8978C40.0728 22.3515 41.1864 22.2901 42.1182 21.852C42.6655 21.5947 43.3139 21.6856 43.8074 22.0348C44.3628 22.428 44.6556 23.1113 44.5134 23.7769C44.4873 23.8991 44.4707 24.0266 44.4644 24.1581C44.4265 24.9763 44.8751 25.7687 45.5962 26.1576C47.0399 26.9355 48.7636 25.9759 48.8623 24.3382Z" fill="#C7ECF1"/>
<path d="M15.2327 40.0213C14.9787 39.4979 14.4232 39.1624 13.8417 39.1777C13.4654 39.1875 13.1372 39.3232 12.8841 39.537C12.5798 39.7944 12.1551 39.8561 11.7733 39.7427L11.5808 39.6854C11.145 39.5556 10.8302 39.1908 10.7357 38.7459C10.6945 38.5514 10.6298 38.3566 10.5395 38.1643C10.0822 37.1898 9.03737 36.5865 7.96476 36.6795C6.24097 36.8296 5.14875 38.5341 5.7009 40.1465C6.09025 41.2838 7.24525 42.0226 8.44043 41.8948C9.23417 41.8101 9.88766 41.3936 10.3028 40.8113C10.5467 40.4695 10.9701 40.3036 11.3879 40.3472C11.858 40.3962 12.2679 40.71 12.4085 41.1615C12.4343 41.2446 12.4677 41.3273 12.5085 41.409C12.7642 41.9173 13.3055 42.2445 13.8744 42.2344C15.0133 42.2141 15.7302 41.0463 15.2327 40.0213Z" fill="#C7ECF1"/>
<path d="M72.5846 54.8124C71.7697 54.8251 71.0149 55.3317 70.6899 56.079C70.4796 56.5627 70.4575 57.0599 70.579 57.5076C70.7252 58.0462 70.5525 58.6221 70.1822 59.0397L69.9956 59.2502C69.5728 59.7268 68.9228 59.9104 68.3022 59.7671C68.0304 59.7043 67.7451 59.6708 67.4472 59.6715C65.9388 59.6754 64.5538 60.6444 64.0373 62.0616C63.2068 64.3393 64.7245 66.7355 67.0988 66.9891C68.7732 67.1679 70.3954 66.1392 70.9412 64.5461C71.3038 63.488 71.1622 62.4117 70.6687 61.5399C70.3788 61.0278 70.4192 60.3917 70.7217 59.8872C71.0622 59.3194 71.7036 58.9848 72.3601 59.074C72.4807 59.0902 72.6056 59.0972 72.7337 59.0933C73.5304 59.0697 74.2666 58.576 74.5905 57.8477C75.2391 56.3896 74.181 54.7875 72.5846 54.8124Z" fill="#C7ECF1"/>
<path d="M15.2069 59.5796C15.2069 60.5569 14.4148 61.3489 13.4373 61.3489C12.4602 61.3489 11.6681 60.5569 11.6681 59.5796C11.6681 58.6025 12.4602 57.8105 13.4373 57.8105C14.4148 57.8105 15.2069 58.6025 15.2069 59.5796Z" fill="#C7ECF1"/>
<path d="M50.1117 32.3151C50.1117 33.3813 49.2475 34.2453 48.1814 34.2453C47.1154 34.2453 46.2512 33.3809 46.2512 32.3151C46.2512 31.2492 47.1154 30.385 48.1814 30.385C49.2475 30.385 50.1117 31.2492 50.1117 32.3151Z" fill="#C7ECF1"/>
<path d="M75.8482 27.8112C75.8482 28.6553 75.1641 29.3394 74.3203 29.3394C73.4762 29.3394 72.7924 28.6551 72.7924 27.8112C72.7924 26.9676 73.4764 26.2833 74.3203 26.2833C75.1641 26.2833 75.8482 26.9676 75.8482 27.8112Z" fill="#C7ECF1"/>
<path d="M30.005 9.15255C30.005 9.68541 29.573 10.1176 29.0401 10.1176C28.5068 10.1176 28.0751 9.68541 28.0751 9.15255C28.0751 8.61935 28.5073 8.1875 29.0401 8.1875C29.5732 8.1875 30.005 8.61968 30.005 9.15255Z" fill="#C7ECF1"/>
<path d="M50.5944 60.7057C50.5944 61.7274 49.7663 62.5555 48.7444 62.5555C47.7224 62.5555 46.8948 61.7274 46.8948 60.7057C46.8948 59.6842 47.7229 58.8561 48.7444 58.8561C49.7659 58.8561 50.5944 59.6842 50.5944 60.7057Z" fill="#C7ECF1"/>
<path d="M77.5536 50.2501C77.5536 51.1476 76.8262 51.875 75.9287 51.875C75.0315 51.875 74.3041 51.1476 74.3041 50.2501C74.3041 49.3529 75.0315 48.6255 75.9287 48.6255C76.8262 48.6255 77.5536 49.3529 77.5536 50.2501Z" fill="#C7ECF1"/>
<path d="M18.1827 17.9994C18.1827 18.8435 17.4984 19.5274 16.6547 19.5274C15.8109 19.5274 15.1267 18.8432 15.1267 17.9994C15.1267 17.1556 15.8109 16.4714 16.6547 16.4714C17.4984 16.4714 18.1827 17.1553 18.1827 17.9994Z" fill="#C7ECF1"/>
<path fill-rule="evenodd" clip-rule="evenodd" d="M71.7418 68.5922C66.3096 74.5629 59.2534 78.9101 51.105 80.7545C48.2842 69.2428 44.266 60.4473 38.8338 54.3634C27.1085 52.9537 18.0922 47.959 12.0126 39.1613H40.5733C41.4408 37.2062 42.5297 35.3621 43.8324 33.8414H44.1572C47.3036 33.8414 49.9152 31.4524 50.2371 28.411C53.8212 26.3473 58.1686 25.1538 63.2712 24.9352C67.3943 30.04 70.4397 34.1664 72.5016 39.1613C75.2134 45.6767 78.3638 56.863 73.3692 60.5554C72.5016 61.2062 70.5445 62.2912 68.1577 62.4C68.9177 65.1164 70.1108 67.1814 71.7418 68.5922Z" fill="#FCEDC6"/>
<path d="M30.6927 61.8577C32.3198 61.8577 33.7302 62.5083 34.8158 63.597C35.9045 64.682 36.4466 66.0924 36.4466 67.6155C36.4466 69.2425 35.9045 70.6529 34.8158 71.7416C33.7302 72.8268 32.3198 73.3696 30.6927 73.3696C29.1698 73.3696 27.7599 72.8268 26.6744 71.7416C25.5892 70.6529 24.9347 69.2425 24.9347 67.6155C24.9347 66.0924 25.5892 64.682 26.6744 63.597C27.7599 62.5083 29.1698 61.8577 30.6927 61.8577ZM32.5371 65.8757C32.1031 65.4418 31.4481 65.1161 30.6927 65.1161C30.0419 65.1161 29.3869 65.4418 28.9532 65.8757C28.5192 66.3095 28.1934 66.964 28.1934 67.6155C28.1934 68.3746 28.5192 69.0259 28.9532 69.4596C29.3869 69.894 30.0419 70.2194 30.6927 70.2194C31.4481 70.2194 32.1031 69.894 32.5371 69.4596C32.971 69.0259 33.2969 68.3746 33.2969 67.6155C33.2969 66.964 32.971 66.3095 32.5371 65.8757Z" fill="#F3A361"/>
<path d="M40.2479 75.5432C39.5968 73.4778 39.8139 70.8741 40.3568 68.4833C41.1162 65.7669 42.4181 63.2717 43.8324 62.0747L45.8976 64.4655C45.0259 65.3332 44.0491 67.1813 43.5031 69.351C43.0689 71.1995 42.8516 73.1524 43.2858 74.6716L40.2479 75.5432Z" fill="#F3A361"/>
<path fill-rule="evenodd" clip-rule="evenodd" d="M72.7182 67.3984C72.0636 68.2663 71.3082 69.0259 70.5447 69.7852C68.8089 68.1577 67.5068 65.8757 66.5269 62.838L69.6764 61.9662C70.4397 64.357 71.4126 66.0923 72.7182 67.3984Z" fill="#1E1E1E"/>
<path fill-rule="evenodd" clip-rule="evenodd" d="M46.9859 36.881C48.288 36.881 49.3727 37.9677 49.3727 39.2718C49.3727 40.682 48.288 41.7691 46.9859 41.7691C45.6803 41.7691 44.5951 40.682 44.5951 39.2718C44.5951 37.9677 45.6803 36.881 46.9859 36.881Z" fill="#1E1E1E"/>
<path d="M67.0726 28.1936H49.9152V31.4521H67.0726V28.1936Z" fill="#1E1E1E"/>
<path d="M45.1628 34.0682C48.6774 33.543 51.1007 30.2682 50.5756 26.7536C50.0504 23.2391 46.7756 20.8157 43.261 21.3408C39.7465 21.866 37.3231 25.1409 37.8482 28.6554C38.3734 32.17 41.6482 34.5934 45.1628 34.0682Z" fill="#E3FCFF"/>
<path fill-rule="evenodd" clip-rule="evenodd" d="M40.1399 30.798C40.0563 27.278 42.4789 24.1449 45.9498 23.3691C45.0804 22.9133 44.0637 22.7195 43.0185 22.8757C40.4001 23.267 38.5945 25.7067 38.9858 28.3253C39.1285 29.2799 39.5434 30.1266 40.1399 30.798Z" fill="white"/>
<path d="M51.8683 27.7596C51.8683 29.9333 50.9999 31.7783 49.5878 33.1881C48.1756 34.6026 46.3293 35.4703 44.1578 35.4703C42.0941 35.4703 40.1395 34.6026 38.7287 33.1881C37.3165 31.7783 36.4464 29.9333 36.4464 27.7596C36.4464 25.6986 37.3165 23.7418 38.7287 22.3314C40.1395 20.9172 42.0941 20.0491 44.1578 20.0491C46.3293 20.0491 48.1756 20.9172 49.5878 22.3314C50.9999 23.7418 51.8683 25.6986 51.8683 27.7596ZM47.3079 30.9061C48.1756 30.1504 48.6098 28.9534 48.6098 27.7596C48.6098 26.5665 48.1756 25.3693 47.3079 24.61C46.5464 23.8501 45.4614 23.308 44.1578 23.308C42.9642 23.308 41.8773 23.8501 41.0094 24.61C40.248 25.3693 39.7051 26.5665 39.7051 27.7596C39.7051 28.9534 40.248 30.1504 41.0094 30.9061C41.8773 31.7783 42.9642 32.2116 44.1578 32.2116C45.4614 32.2116 46.5464 31.7783 47.3079 30.9061Z" fill="#1E1E1E"/>
<path fill-rule="evenodd" clip-rule="evenodd" d="M44.1574 28.7364C44.7003 28.7364 45.2424 28.3022 45.2424 27.7595C45.2424 27.2174 44.7003 26.6727 44.1574 26.6727C43.6153 26.6727 43.1812 27.2174 43.1812 27.7595C43.1812 28.3022 43.6153 28.7364 44.1574 28.7364Z" fill="#1E1E1E"/>
<path fill-rule="evenodd" clip-rule="evenodd" d="M56.2122 68.3748C53.9299 70.1106 51.9774 71.9589 51.0001 74.3458C51.6516 76.1938 52.1939 78.2555 52.7366 80.3209C59.5755 78.4721 65.7674 74.7799 70.5446 69.7852C69.0259 68.3748 67.8289 66.5267 66.9607 63.9226C65.5506 63.8142 64.1397 63.3801 62.7254 62.3999C60.7729 64.7905 58.3859 66.5267 56.2122 68.3748Z" fill="white"/>
<path d="M65.2245 61.6406C63.3762 64.682 60.7727 66.7476 58.2734 68.7003C54.8013 71.5251 51.6514 74.0204 52.0851 78.2556L48.935 78.5808C48.2844 72.6105 52.0851 69.5682 56.2121 66.2012C58.4905 64.4656 60.881 62.5083 62.4037 60.0129L65.2245 61.6406Z" fill="#1E1E1E"/>
<path fill-rule="evenodd" clip-rule="evenodd" d="M52.7364 80.3209C51.6514 80.6459 50.6712 80.8629 49.5858 81.0802C48.7181 77.8211 47.8502 74.7797 46.8701 72.0675C44.4832 65.4417 41.5501 60.0129 38.0776 55.8865C32.2122 55.1271 26.9962 53.4957 22.5441 51.0001C17.7703 48.2841 13.8574 44.7002 10.6019 40.1396L8.86267 37.534H39.4852C40.2476 36.0128 41.1162 34.709 42.0961 33.4071C42.747 33.6242 43.3982 33.8411 44.1571 33.8411C44.9165 33.8411 45.6765 33.6242 46.4359 33.4071C44.7003 35.1432 43.1811 37.3147 42.0961 39.9226L41.6582 40.7905H15.2713C17.8752 43.8321 20.8088 46.2187 24.0672 48.0672C28.4105 50.4543 33.4053 52.0853 39.051 52.7363L40.1395 53.2786C44.049 57.7313 47.3038 63.7055 49.9152 70.8739C51.0002 73.8035 51.8681 76.9536 52.7364 80.3209ZM50.1325 26.5641C53.8214 24.6092 58.1686 23.5245 63.1596 23.3073L64.0312 23.1992L64.5737 23.8501C66.6391 26.4558 68.4832 28.8448 70.0024 31.2352C71.6292 33.6242 72.9355 36.0128 74.02 38.6189C75.6479 42.5304 77.4958 48.0672 77.6043 52.8449C77.8214 56.6458 76.9537 59.9043 74.3459 61.8576C73.1521 62.8378 70.3274 64.3568 66.9606 64.0311C64.8989 63.8143 62.5083 62.8378 60.3384 60.447C58.8192 58.8193 57.6226 55.2352 56.9715 50.8917C56.1034 45.8935 55.7739 39.7055 55.7739 34.1663H59.0365C59.0365 39.5969 59.3584 45.5679 60.23 50.3455C60.7727 54.1467 61.6404 57.0798 62.8375 58.2733C64.3568 59.9043 65.8751 60.5553 67.2897 60.7726C69.5682 60.9897 71.5246 59.9043 72.3932 59.2535C74.02 58.0562 74.4581 55.6694 74.3459 52.9536C74.2373 48.6097 72.5015 43.5064 70.9786 39.814C70.0022 37.4254 68.8089 35.2535 67.2897 32.971C65.8751 30.9078 64.3568 28.8448 62.5083 26.5641C57.297 26.9985 52.9537 28.4107 49.3692 30.7993C49.9152 29.9314 50.2371 28.8448 50.2371 27.7594C50.2371 27.3259 50.2371 26.8897 50.1325 26.5641Z" fill="#1E1E1E"/>
<path fill-rule="evenodd" clip-rule="evenodd" d="M57.5183 53.8213L57.487 53.8224C57.8124 60.8821 55.4255 66.3105 52.0583 69.7863C50.1058 71.7427 47.8236 73.0448 45.5413 73.8041C43.2591 74.5639 40.981 74.7841 38.9196 74.2381C36.5288 73.6958 34.4676 72.2856 33.2703 69.7863L30.3368 71.2C32.0768 74.5639 34.9013 76.6289 38.2683 77.388C40.8722 78.0397 43.6968 77.8224 46.5213 76.9545C49.3425 75.9776 51.9506 74.3466 54.3408 72.0683C57.1782 69.1543 59.3644 65.2111 60.2898 60.3157C59.1523 59.0804 58.1971 56.7469 57.5183 53.8213Z" fill="#F3A361"/>
</svg>
