<svg width="256" height="249" viewBox="0 0 256 249" fill="none" xmlns="http://www.w3.org/2000/svg">
<path d="M75.6122 177.331C68.3347 183.858 56.7197 183.153 49.6693 175.757C42.6189 168.361 42.803 157.074 50.0804 150.547C57.3578 144.02 68.9728 144.725 76.0232 152.121C83.0736 159.517 82.8896 170.804 75.6122 177.331Z" fill="#B0DFE6"/>
<path d="M186.298 78.0582C179.021 84.5853 166.158 82.5713 157.567 73.5599C148.977 64.5486 147.913 51.9522 155.19 45.4252C162.468 38.8981 175.331 40.9121 183.921 49.9235C192.511 58.9348 193.576 71.5312 186.298 78.0582Z" fill="#B0DFE6"/>
<path d="M124.036 74.2811C116.758 80.8082 103.874 78.7723 95.2584 69.7339C86.6424 60.6955 85.5573 48.0772 92.8348 41.5502C100.112 35.0231 112.996 37.059 121.612 46.0974C130.228 55.1358 131.313 67.7541 124.036 74.2811Z" fill="#B0DFE6"/>
<path d="M76.599 116.827C69.3216 123.354 56.3491 121.225 47.6241 112.072C38.8991 102.92 37.7256 90.2085 45.003 83.6815C52.2804 77.1545 65.2529 79.2831 73.9779 88.4359C82.703 97.5888 83.8764 110.3 76.599 116.827Z" fill="#B0DFE6"/>
<path d="M115.636 111.624C120.778 107.016 127.397 104.231 134.498 103.686C141.599 103.142 148.797 104.868 155.008 108.606C164.154 114.095 174.991 115.938 185.158 113.734C192.439 112.03 200.247 113.165 206.949 116.903C213.651 120.641 218.727 126.692 221.118 133.791C223.508 140.89 223.027 148.487 219.774 154.993C216.522 161.5 210.751 166.412 203.667 168.702C187.445 174.277 174.429 185.952 167.43 201.202C164.522 207.873 159.022 213.07 152.081 215.707C145.14 218.343 137.294 218.214 130.185 215.348C123.076 212.481 117.253 207.099 113.935 200.326C110.618 193.553 110.061 185.914 112.382 179.006C115.437 169.349 114.385 158.729 109.455 149.462C106.1 143.163 104.888 136.068 106.002 129.244C107.117 122.42 110.498 116.236 115.636 111.624Z" fill="#B0DFE6"/>
</svg>
