<svg width="52" height="13" viewBox="0 0 52 13" fill="none" xmlns="http://www.w3.org/2000/svg">
<g clip-path="url(#clip0_2003_1035)">
<path d="M8.19195 2.44293C8.19195 2.86984 8.19084 3.29712 8.19231 3.72403C8.19342 3.96522 8.24522 4.00057 8.44692 3.87924C8.8764 3.62093 9.32426 3.41176 9.82759 3.36598C11.0907 3.2506 12.1528 3.64997 12.9582 4.66085C13.6448 5.52286 13.834 6.52407 13.7503 7.60605C13.6246 9.23031 12.3082 10.6737 10.361 10.8386C9.06047 10.9484 7.91052 10.562 6.85022 9.853C6.12131 9.36579 5.42987 8.82164 4.70022 8.33555C4.34752 8.10032 3.96286 7.88892 3.5635 7.75641C2.7725 7.49439 2.05351 7.81634 1.66334 8.55999C1.5465 8.78256 1.3944 8.87338 1.15229 8.86258C0.883723 8.8503 0.613688 8.8663 0.344755 8.857C0.0122621 8.84546 -0.0729736 8.70738 0.057819 8.40143C0.575111 7.18807 1.49691 6.51998 2.77985 6.33909C3.73471 6.20435 4.57457 6.48015 5.34427 7.04477C6.13527 7.6254 6.92443 8.21049 7.73858 8.75688C8.36609 9.17821 9.06929 9.4246 9.83053 9.47968C10.9537 9.56082 12.0198 8.85923 12.277 7.99239C12.593 6.92828 12.3619 5.76702 11.4449 5.11493C10.7839 4.64522 10.062 4.5853 9.34924 4.96829C8.62364 5.35798 8.22024 5.98811 8.18974 6.8356C8.18276 7.02728 8.19599 7.21971 8.1868 7.41101C8.17431 7.6749 8.03323 7.76386 7.81316 7.63135C7.51998 7.45456 7.23966 7.25469 6.95566 7.06264C6.81348 6.96661 6.80944 6.81327 6.81017 6.66402C6.81348 6.01453 6.82377 5.36542 6.82487 4.71594C6.82744 3.51523 6.82524 2.31489 6.8256 1.11419C6.8256 0.772511 6.86528 0.73343 7.20696 0.732686C7.39066 0.732314 7.57399 0.731197 7.75769 0.732686C8.09091 0.735664 8.18644 0.829085 8.18827 1.16183C8.19048 1.58874 8.18901 2.01565 8.18901 2.44293C8.19011 2.44293 8.19121 2.44293 8.19195 2.44293Z" fill="#002E72"/>
<path d="M33.1316 3.84325C33.1316 4.61035 33.1305 5.37782 33.1324 6.14492C33.1327 6.34888 33.139 6.55284 33.1507 6.75606C33.154 6.81115 33.1875 6.86437 33.2069 6.91834C33.2642 6.89452 33.3374 6.88559 33.377 6.8439C33.8069 6.39578 34.2316 5.94207 34.6581 5.49059C35.1732 4.94495 35.6891 4.40006 36.2041 3.85442C36.3515 3.69847 36.5264 3.62179 36.7438 3.62961C37.0003 3.63891 37.2575 3.62961 37.5139 3.63296C37.5925 3.63408 37.6748 3.63631 37.7487 3.65976C37.9155 3.71261 37.9489 3.86223 37.8266 3.98804C37.2042 4.62672 36.5796 5.26355 35.9576 5.90262C35.7647 6.101 35.5741 6.30161 35.3867 6.5052C35.2074 6.70023 35.2092 6.7047 35.3738 6.92318C36.0418 7.80789 36.7089 8.69298 37.378 9.57694C37.5488 9.80287 37.7336 10.0184 37.8938 10.2514C37.9452 10.3258 37.9765 10.4568 37.9463 10.5335C37.9199 10.6001 37.7961 10.66 37.7119 10.6652C37.4191 10.682 37.1248 10.6779 36.8317 10.6738C36.6098 10.6705 36.4635 10.5368 36.3349 10.3675C35.7313 9.57322 35.1244 8.78193 34.5182 7.98952C34.477 7.93593 34.4329 7.88419 34.3903 7.83171C34.304 7.72452 34.2099 7.70926 34.1111 7.81199C33.851 8.08183 33.5831 8.34534 33.3363 8.6271C33.1522 8.83739 33.136 9.11095 33.1335 9.37968C33.1305 9.70684 33.1305 10.034 33.1283 10.3612C33.1268 10.5461 33.0379 10.6559 32.8513 10.6585C32.5647 10.6623 32.2778 10.6571 31.9912 10.6537C31.845 10.6518 31.7884 10.5581 31.7781 10.4259C31.7715 10.3396 31.7693 10.2529 31.7693 10.1665C31.769 7.20903 31.769 4.25155 31.7693 1.2937C31.7693 0.941604 31.8255 0.884658 32.1724 0.884285C32.3682 0.884285 32.564 0.883169 32.7594 0.884285C33.0442 0.886146 33.1309 0.970263 33.1316 1.26281C33.1342 2.12296 33.1324 2.98273 33.1327 3.84288L33.1316 3.84325Z" fill="#002E72"/>
<path d="M23.2377 7.15389C23.2377 5.05879 24.7969 3.48886 26.8756 3.49072C28.8823 3.49259 30.439 5.05209 30.4886 7.01022C30.5415 9.10345 28.9951 10.8632 26.7044 10.8036C24.7466 10.7527 23.2373 9.20879 23.2373 7.15389H23.2377ZM26.8635 9.54339C27.2526 9.55753 27.6137 9.45518 27.9495 9.26387C28.8221 8.76587 29.2714 7.80895 29.0811 6.7173C28.7931 5.06437 27.1372 4.25633 25.6996 5.06065C25.0122 5.44513 24.4207 6.45974 24.6386 7.61318C24.8509 8.73796 25.7683 9.54376 26.8639 9.54339H26.8635Z" fill="#002E72"/>
<path d="M18.433 10.7937C16.4752 10.838 14.8296 9.34433 14.8237 7.15395C14.8182 5.18205 16.2728 3.49228 18.4558 3.49414C20.8086 3.496 22.1434 5.3983 22.0813 7.2604C22.0184 9.15191 20.5709 10.8339 18.433 10.7937ZM16.1695 7.11711C16.2026 7.33596 16.2195 7.5589 16.2709 7.77292C16.6401 9.31344 18.3559 10.05 19.6473 9.19732C20.5242 8.61818 20.8516 7.74463 20.6716 6.71997C20.4181 5.27548 19.2152 4.50391 17.8283 4.82214C16.8694 5.04211 16.1934 6.03029 16.1691 7.11673L16.1695 7.11711Z" fill="#002E72"/>
<path d="M45.7275 3.63287C45.8498 3.63287 45.9722 3.63622 46.0942 3.63213C46.2951 3.6258 46.4142 3.71215 46.4976 3.90644C47.1115 5.33865 47.7353 6.76603 48.3569 8.19489C48.4062 8.30767 48.4561 8.42081 48.5149 8.52875C48.5855 8.65902 48.685 8.66051 48.7673 8.53657C48.7941 8.496 48.8121 8.4491 48.8298 8.40295C49.3934 6.93687 49.9558 5.47078 50.5191 4.0047C50.655 3.65074 50.6818 3.6325 51.0551 3.63213C51.2568 3.63213 51.4589 3.62766 51.6606 3.63548C52.0133 3.64962 52.0651 3.7263 51.9346 4.05569C51.6764 4.70852 51.4129 5.3595 51.1484 6.00972C50.4639 7.6928 49.781 9.37625 49.0899 11.0563C48.9249 11.4576 48.6971 11.8253 48.3904 12.1353C47.8661 12.6646 47.2143 12.7971 46.5126 12.7041C46.1713 12.659 45.8348 12.5552 45.5048 12.4495C45.2609 12.3713 45.23 12.2544 45.3322 12.0211C45.4038 11.8573 45.4692 11.6913 45.5431 11.5287C45.6676 11.2551 45.7117 11.2491 45.9957 11.3284C46.2635 11.4032 46.5376 11.4721 46.8135 11.4985C47.4208 11.5562 48.1288 10.6908 47.7838 9.96767C46.8741 8.06165 46.0155 6.13106 45.1378 4.20941C44.9049 3.6995 44.9541 3.6258 45.5082 3.63139C45.5816 3.63213 45.6547 3.63139 45.7282 3.63139C45.7282 3.63139 45.7282 3.63176 45.7282 3.63213L45.7275 3.63287Z" fill="#002E72"/>
<path d="M41.749 3.5546C42.5458 3.51515 43.2972 3.78499 44.0095 4.19441C44.2326 4.32244 44.2597 4.42182 44.1374 4.64849C44.0525 4.80555 43.9574 4.95704 43.8644 5.10964C43.7105 5.36236 43.6245 5.37837 43.353 5.25145C43.0385 5.10443 42.7251 4.94736 42.3963 4.84091C42.0179 4.71846 41.6233 4.65481 41.2251 4.77355C41.2192 4.77541 41.2129 4.77503 41.2071 4.77727C40.8889 4.8893 40.5891 5.04041 40.5593 5.42452C40.5307 5.79523 40.7871 6.00552 41.0888 6.1235C41.577 6.31444 42.0822 6.45997 42.5738 6.64309C42.8703 6.75363 43.1649 6.87906 43.4419 7.03204C44.5489 7.64393 44.5217 8.83049 44.1455 9.56223C43.7939 10.2467 43.195 10.6014 42.4665 10.7123C41.2497 10.898 40.1423 10.5806 39.1357 9.87971C38.9248 9.7327 38.8994 9.61397 39.0365 9.39623C39.1511 9.21385 39.2793 9.04041 39.4028 8.86399C39.4818 8.75121 39.5868 8.7233 39.707 8.78806C39.8253 8.85171 39.9425 8.9187 40.0542 8.99277C40.7052 9.42415 41.4135 9.62216 42.1928 9.53618C42.4771 9.50491 42.7226 9.39586 42.9077 9.1677C43.1557 8.8625 43.1418 8.47393 42.835 8.23014C42.6524 8.08498 42.4308 7.97444 42.2104 7.89553C41.6821 7.70683 41.1413 7.55348 40.6108 7.37074C40.4274 7.30746 40.2529 7.21069 40.0858 7.10908C39.0986 6.50947 38.931 5.1517 39.7349 4.2949C40.1971 3.80211 40.7669 3.56279 41.4352 3.55497C41.5271 3.55386 41.6185 3.55497 41.7486 3.55497L41.749 3.5546Z" fill="#002E72"/>
</g>
<defs>
<clipPath id="clip0_2003_1035">
<rect width="52" height="12" fill="white" transform="translate(0 0.731934)"/>
</clipPath>
</defs>
</svg>
