<svg width="16" height="17" viewBox="0 0 16 17" fill="none" xmlns="http://www.w3.org/2000/svg">
<g clip-path="url(#clip0_2003_1029)">
<path d="M8 1.78125C6.54182 1.7829 5.14383 2.3629 4.11274 3.39399C3.08165 4.42508 2.50165 5.82307 2.5 7.28125C2.5 11.9875 7.5 15.5419 7.71313 15.6906C7.7972 15.7495 7.89735 15.7811 8 15.7811C8.10265 15.7811 8.2028 15.7495 8.28687 15.6906C8.5 15.5419 13.5 11.9875 13.5 7.28125C13.4983 5.82307 12.9184 4.42508 11.8873 3.39399C10.8562 2.3629 9.45818 1.7829 8 1.78125ZM8 5.28125C8.39556 5.28125 8.78224 5.39855 9.11114 5.61831C9.44004 5.83807 9.69638 6.15043 9.84776 6.51588C9.99913 6.88134 10.0387 7.28347 9.96157 7.67143C9.8844 8.05939 9.69392 8.41576 9.41421 8.69546C9.13451 8.97517 8.77814 9.16565 8.39018 9.24282C8.00222 9.31999 7.60009 9.28038 7.23463 9.12901C6.86918 8.97763 6.55682 8.72129 6.33706 8.39239C6.1173 8.06349 6 7.67681 6 7.28125C6 6.75082 6.21071 6.24211 6.58579 5.86704C6.96086 5.49196 7.46957 5.28125 8 5.28125Z" fill="#191970"/>
</g>
<defs>
<clipPath id="clip0_2003_1029">
<rect width="16" height="16" fill="white" transform="translate(0 0.78125)"/>
</clipPath>
</defs>
</svg>
