<svg width="16" height="17" viewBox="0 0 16 17" fill="none" xmlns="http://www.w3.org/2000/svg">
<g clip-path="url(#clip0_2003_1024)">
<path d="M14.4624 3.5527C14.4624 3.5527 14.4624 3.55895 14.4624 3.56208L10.8249 15.5583C10.7699 15.7532 10.6566 15.9265 10.5002 16.0551C10.3438 16.1837 10.1518 16.2614 9.94995 16.2777C9.9212 16.2802 9.89245 16.2815 9.8637 16.2815C9.67457 16.282 9.48922 16.2285 9.32953 16.1272C9.16984 16.0258 9.04246 15.8809 8.96245 15.7096L6.68745 11.0408C6.66468 10.994 6.65709 10.9413 6.66571 10.89C6.67434 10.8387 6.69876 10.7914 6.73557 10.7546L10.3556 7.13458C10.4454 7.04005 10.4947 6.91417 10.493 6.78379C10.4914 6.65341 10.4388 6.52884 10.3466 6.43664C10.2544 6.34444 10.1299 6.2919 9.99949 6.29023C9.8691 6.28856 9.74323 6.33789 9.6487 6.4277L6.02682 10.0477C5.99005 10.0845 5.94271 10.1089 5.8914 10.1176C5.84009 10.1262 5.78736 10.1186 5.74057 10.0958L1.06745 7.82145C0.884711 7.73378 0.732927 7.59266 0.632209 7.41677C0.531492 7.24089 0.486597 7.03855 0.503473 6.83658C0.52035 6.6346 0.598201 6.44252 0.726711 6.28579C0.85522 6.12906 1.02832 6.01508 1.22307 5.95895L13.2193 2.32145H13.2287C13.3995 2.27347 13.58 2.27178 13.7517 2.31658C13.9233 2.36137 14.08 2.45103 14.2056 2.57636C14.3311 2.70168 14.4211 2.85816 14.4663 3.02973C14.5114 3.20131 14.5101 3.3818 14.4624 3.5527Z" fill="#191970"/>
</g>
<defs>
<clipPath id="clip0_2003_1024">
<rect width="16" height="16" fill="white" transform="translate(0 0.78125)"/>
</clipPath>
</defs>
</svg>
