<svg width="16" height="17" viewBox="0 0 16 17" fill="none" xmlns="http://www.w3.org/2000/svg">
<g clip-path="url(#clip0_2003_1019)">
<path d="M14.4925 11.7236C14.3811 12.5705 13.9651 13.3479 13.3224 13.9105C12.6797 14.4732 11.8542 14.7827 11 14.7811C6.03751 14.7811 2.00001 10.7436 2.00001 5.78112C1.99847 4.92693 2.30794 4.10139 2.87059 3.45868C3.43324 2.81598 4.21061 2.40007 5.05751 2.28862C5.27166 2.26247 5.48854 2.30629 5.67575 2.41352C5.86296 2.52076 6.01047 2.68566 6.09626 2.88362L7.41626 5.8305V5.838C7.48194 5.98953 7.50906 6.15497 7.49521 6.31955C7.48136 6.48412 7.42696 6.6427 7.33688 6.78112C7.32563 6.798 7.31376 6.81362 7.30126 6.82925L6.00001 8.37175C6.46813 9.323 7.46313 10.3092 8.42688 10.7786L9.94813 9.48425C9.96307 9.47169 9.97872 9.46 9.99501 9.44925C10.1333 9.357 10.2924 9.30069 10.458 9.28541C10.6235 9.27013 10.7903 9.29637 10.9431 9.36175L10.9513 9.3655L13.8956 10.6849C14.0939 10.7704 14.2592 10.9177 14.3668 11.105C14.4744 11.2922 14.5185 11.5092 14.4925 11.7236Z" fill="#191970"/>
</g>
<defs>
<clipPath id="clip0_2003_1019">
<rect width="16" height="16" fill="white" transform="translate(0 0.78125)"/>
</clipPath>
</defs>
</svg>
