<svg xmlns="http://www.w3.org/2000/svg" width="132" height="56" viewBox="0 0 132 56" fill="none">
  <path fill-rule="evenodd" clip-rule="evenodd" d="M38.8142 48.2731C32.8231 58.9986 38.5961 55.4957 45.5095 48.2731H34.2408C33.6957 48.2731 33.0975 48.219 32.5536 48.1642C27.5977 57.466 29.395 57.1927 38.8142 48.2731ZM96.0302 48.3829C92.2196 55.1675 93.1441 56.2631 96.0302 54.3477C97.7182 53.2523 104.034 47.4516 106.156 44.3335C104.034 46.7403 100.929 48.2731 97.4988 48.2731H89.7151C84.7599 57.6301 86.5567 57.3019 96.0302 48.3829ZM105.775 28.4631C116.01 32.0211 125.047 30.3792 130.054 24.9616H97.4988C100.712 24.9616 103.652 26.3289 105.775 28.4631ZM36.9602 24.9616C33.2059 24.8519 30.8093 23.8121 29.7757 20.1458C30.9195 20.0908 31.8986 19.5443 32.3879 19.2153C34.8939 17.3543 33.3143 11.7187 31.9529 8.43567C30.9195 5.91766 29.395 3.83839 27.3257 1.2666C21.7723 1.4856 17.9615 3.89313 15.8946 8.43567H1.57666C4.67913 12.813 9.14282 15.3857 15.0766 16.0965C18.8879 20.4734 21.4464 27.5874 22.6994 37.4392C22.6994 37.1636 22.6425 36.8905 22.6425 36.6171C22.6425 30.2149 27.8703 24.9616 34.2408 24.9616H36.9602Z" fill="#FCEDC6"/>
  <path fill-rule="evenodd" clip-rule="evenodd" d="M34.2405 24.9617H97.4988C103.87 24.9617 109.095 30.215 109.095 36.617C109.095 43.0188 103.87 48.2733 97.4988 48.2733H34.2405C27.87 48.2733 22.6423 43.0188 22.6423 36.617C22.6423 30.215 27.87 24.9617 34.2405 24.9617Z" fill="#CBAF95"/>
  <path d="M97.4992 25.782H34.2409C31.3007 25.782 28.5776 27.0408 26.6713 28.9555C24.7135 30.9258 23.5154 33.663 23.5154 36.617C23.5154 39.5725 24.7135 42.3087 26.6713 44.2785C28.5776 46.2488 31.3007 47.4517 34.2409 47.4517H97.4992C100.439 47.4517 103.161 46.2488 105.066 44.2785C107.026 42.3087 108.279 39.5725 108.279 36.617C108.279 33.663 107.026 30.9258 105.066 28.9555C103.161 27.0408 100.439 25.782 97.4992 25.782ZM34.2409 24.1404H97.4992C100.929 24.1404 104.034 25.5623 106.266 27.8075C108.497 30.0509 109.913 33.169 109.913 36.617C109.913 40.065 108.497 43.1831 106.266 45.4265C104.034 47.6717 100.929 49.0938 97.4992 49.0938H34.2409C30.8658 49.0938 27.7613 47.6717 25.4756 45.4265C23.2433 43.1831 21.8293 40.065 21.8293 36.617C21.8293 33.169 23.2433 30.0509 25.4756 27.8075C27.7613 25.5623 30.8658 24.1404 34.2409 24.1404Z" fill="#1E1E1E"/>
  <path d="M97.4988 24.1404H131.959L130.654 25.5623C127.987 28.409 124.176 30.324 119.655 30.9258C115.41 31.5286 110.511 31.0348 105.393 29.2301L105.884 27.6434C110.837 29.3944 115.464 29.8868 119.439 29.2852C122.76 28.8465 125.699 27.6434 127.987 25.782H97.4988V24.1404Z" fill="#1E1E1E"/>
  <path d="M33.2608 48.5463C32.2271 50.4074 30.9741 53.0334 30.8093 53.9651C31.8445 53.3613 33.6957 51.9951 38.2696 47.6716L39.5749 48.656C37.9418 51.5003 37.2347 53.2521 37.126 54.1836C37.2892 54.1285 37.3431 54.1285 37.6696 53.9651C39.3032 53.0882 42.0246 50.7356 44.909 47.7262L46.1072 48.8204C43.06 51.9951 40.2282 54.5116 38.4313 55.4406C37.6696 55.8257 37.0176 55.9896 36.5253 55.8257C35.7645 55.605 35.438 55.0583 35.4924 54.0193C35.5465 53.5254 35.7645 52.8149 36.1469 51.8851C33.1513 54.5116 31.246 55.8803 30.3215 55.8803C28.307 55.9347 28.4683 53.2521 31.7897 47.7816L33.2608 48.5463Z" fill="#1E1E1E"/>
  <path d="M21.8814 37.5482C21.2283 32.6768 20.3019 28.4629 19.0513 24.9616C17.853 21.6789 16.3821 18.9421 14.6423 16.8628C11.7013 16.4796 9.1428 15.659 6.85709 14.3446C4.5157 13.0315 2.50186 11.2255 0.922291 8.92747L-0.00195312 7.6147H15.4032C17.6351 3.07192 21.6098 0.719123 27.2719 0.391113H27.6522L27.9242 0.719123C29.0139 2.03239 29.8841 3.2369 30.6999 4.38616C31.4639 5.58992 32.171 6.79368 32.7144 8.1067C33.5325 10.1312 34.4026 12.9225 34.5113 15.3301C34.5674 17.2453 34.1848 18.8871 32.8794 19.8726C32.2268 20.3101 30.8093 21.0763 29.1772 20.9124C28.0897 20.8024 26.9454 20.3644 25.8556 19.1606C25.0398 18.3398 24.4964 16.5346 24.1134 14.3446C23.7321 11.8278 23.5152 8.70897 23.5152 5.91769H25.1487C25.1487 8.6542 25.3656 11.664 25.7472 14.0713C26.0752 15.9323 26.5102 17.465 27.054 18.0666C27.8158 18.8871 28.6336 19.2154 29.3407 19.2703C30.4828 19.3796 31.4639 18.8871 31.8986 18.5588C32.6618 17.9566 32.934 16.7531 32.8794 15.3858C32.771 13.1958 31.9529 10.6242 31.1919 8.76346C30.6999 7.55971 30.0474 6.46544 29.3407 5.31642C28.6336 4.27665 27.8158 3.2369 26.9454 2.08689C21.9378 2.41589 18.5616 4.65941 16.6562 8.76346L16.439 9.25647H3.26344C4.5157 10.7335 5.98437 11.992 7.67241 12.9225C9.79592 14.1263 12.3012 14.8925 15.186 15.2751L15.675 15.5498C17.6896 17.7933 19.3231 20.7481 20.6284 24.4137C21.8814 28.0257 22.8621 32.3489 23.5152 37.3278L21.8814 37.5482Z" fill="#1E1E1E"/>
  <path d="M30.539 19.927C31.0288 21.5147 31.7357 22.5538 32.7708 23.156C33.8043 23.8123 35.2205 24.0856 36.9603 24.1405L36.908 25.7824C34.894 25.7282 33.2606 25.3993 31.8987 24.5781C30.539 23.7583 29.5577 22.4438 28.9602 20.3645L30.539 19.927Z" fill="#1E1E1E"/>
  <path d="M90.4228 48.6561C88.6261 52.1585 88.2994 52.7601 87.8098 54.2927C88.68 53.6899 90.9118 52.1041 95.4303 47.7817L96.7372 48.8205C95.2122 51.5006 94.4515 53.2522 94.3421 54.1837V54.3478C94.6138 54.2388 95.049 54.0196 95.541 53.6899C96.4652 53.0883 98.8604 51.0087 101.147 48.7656C102.889 47.0138 104.577 45.1534 105.501 43.8411L106.863 44.7701C105.884 46.194 104.087 48.1092 102.291 49.9149C99.9501 52.2134 97.4441 54.4019 96.4653 55.0586C95.5951 55.6051 94.8319 55.9348 94.288 55.9899C93.6895 56.0445 93.2523 55.8804 92.9266 55.3868C92.7085 55.0586 92.6 54.5663 92.7085 53.9652C92.7631 53.4709 92.9804 52.8149 93.3069 51.9951C90.3679 54.6209 88.408 55.9899 87.4833 55.9899C84.9232 55.9348 85.9043 53.6899 89.0065 47.8907L90.4228 48.6561Z" fill="#1E1E1E"/>
  <path fill-rule="evenodd" clip-rule="evenodd" d="M43.5496 32.6225C44.0932 32.6225 44.5823 33.0592 44.5823 33.663C44.5823 34.2644 44.0932 34.7021 43.5496 34.7021C42.9511 34.7021 42.4598 34.2644 42.4598 33.663C42.4598 33.0592 42.9511 32.6225 43.5496 32.6225ZM39.9561 29.3401C40.5545 29.3401 40.9887 29.7775 40.9887 30.3791C40.9887 30.9797 40.5545 31.4194 39.9561 31.4194C39.3576 31.4194 38.8663 30.9797 38.8663 30.3791C38.8663 29.7775 39.3576 29.3401 39.9561 29.3401ZM36.3643 32.6225C36.9602 32.6225 37.3977 33.0592 37.3977 33.663C37.3977 34.2644 36.9602 34.7021 36.3643 34.7021C35.7643 34.7021 35.3291 34.2644 35.3291 33.663C35.3291 33.0592 35.7643 32.6225 36.3643 32.6225ZM39.9561 35.9065C40.5545 35.9065 40.9887 36.3437 40.9887 36.9452C40.9887 37.5483 40.5545 37.9858 39.9561 37.9858C39.3576 37.9858 38.8663 37.5483 38.8663 36.9452C38.8663 36.3437 39.3576 35.9065 39.9561 35.9065ZM36.3643 39.1889C36.9602 39.1889 37.3977 39.6276 37.3977 40.2289C37.3977 40.8305 36.9602 41.2679 36.3643 41.2679C35.7643 41.2679 35.3291 40.8305 35.3291 40.2289C35.3291 39.6276 35.7643 39.1889 36.3643 39.1889ZM39.9561 42.4726C40.5545 42.4726 40.9887 42.9098 40.9887 43.5128C40.9887 44.1144 40.5545 44.5519 39.9561 44.5519C39.3576 44.5519 38.8663 44.1144 38.8663 43.5128C38.8663 42.9098 39.3576 42.4726 39.9561 42.4726ZM43.5496 39.1889C44.0932 39.1889 44.5823 39.6276 44.5823 40.2289C44.5823 40.8305 44.0932 41.2679 43.5496 41.2679C42.9511 41.2679 42.4598 40.8305 42.4598 40.2289C42.4598 39.6276 42.9511 39.1889 43.5496 39.1889ZM47.0883 42.4726C47.6867 42.4726 48.1765 42.9098 48.1765 43.5128C48.1765 44.1144 47.6867 44.5519 47.0883 44.5519C46.5446 44.5519 46.0534 44.1144 46.0534 43.5128C46.0534 42.9098 46.5446 42.4726 47.0883 42.4726ZM47.0883 35.9065C47.6867 35.9065 48.1765 36.3437 48.1765 36.9452C48.1765 37.5483 47.6867 37.9858 47.0883 37.9858C46.5446 37.9858 46.0534 37.5483 46.0534 36.9452C46.0534 36.3437 46.5446 35.9065 47.0883 35.9065ZM84.8145 29.3401C84.2708 29.3401 83.781 29.7775 83.781 30.3791C83.781 30.9797 84.2708 31.4194 84.8145 31.4194C85.4147 31.4194 85.9042 30.9797 85.9042 30.3791C85.9042 29.7775 85.4147 29.3401 84.8145 29.3401ZM88.408 32.6225C87.8641 32.6225 87.3743 33.0592 87.3743 33.663C87.3743 34.2644 87.8641 34.7021 88.408 34.7021C89.0065 34.7021 89.4977 34.2644 89.4977 33.663C89.4977 33.0592 89.0065 32.6225 88.408 32.6225ZM92.0015 29.3401C91.4031 29.3401 90.9664 29.7775 90.9664 30.3791C90.9664 30.9797 91.4031 31.4194 92.0015 31.4194C92.6 31.4194 93.0349 30.9797 93.0349 30.3791C93.0349 29.7775 92.6 29.3401 92.0015 29.3401ZM95.595 32.6225C94.9951 32.6225 94.5599 33.0592 94.5599 33.663C94.5599 34.2644 94.9951 34.7021 95.595 34.7021C96.1933 34.7021 96.6287 34.2644 96.6287 33.663C96.6287 33.0592 96.1933 32.6225 95.595 32.6225ZM92.0015 35.9065C91.4031 35.9065 90.9664 36.3437 90.9664 36.9452C90.9664 37.5483 91.4031 37.9858 92.0015 37.9858C92.6 37.9858 93.0349 37.5483 93.0349 36.9452C93.0349 36.3437 92.6 35.9065 92.0015 35.9065ZM95.595 39.1889C94.9951 39.1889 94.5599 39.6276 94.5599 40.2289C94.5599 40.8305 94.9951 41.2679 95.595 41.2679C96.1933 41.2679 96.6287 40.8305 96.6287 40.2289C96.6287 39.6276 96.1933 39.1889 95.595 39.1889ZM92.0015 42.4726C91.4031 42.4726 90.9664 42.9098 90.9664 43.5128C90.9664 44.1144 91.4031 44.5519 92.0015 44.5519C92.6 44.5519 93.0349 44.1144 93.0349 43.5128C93.0349 42.9098 92.6 42.4726 92.0015 42.4726ZM88.408 39.1889C87.8641 39.1889 87.3743 39.6276 87.3743 40.2289C87.3743 40.8305 87.8641 41.2679 88.408 41.2679C89.0065 41.2679 89.4977 40.8305 89.4977 40.2289C89.4977 39.6276 89.0065 39.1889 88.408 39.1889ZM84.8145 42.4726C84.2708 42.4726 83.781 42.9098 83.781 43.5128C83.781 44.1144 84.2708 44.5519 84.8145 44.5519C85.4147 44.5519 85.9042 44.1144 85.9042 43.5128C85.9042 42.9098 85.4147 42.4726 84.8145 42.4726ZM84.8145 35.9065C84.2708 35.9065 83.781 36.3437 83.781 36.9452C83.781 37.5483 84.2708 37.9858 84.8145 37.9858C85.4147 37.9858 85.9042 37.5483 85.9042 36.9452C85.9042 36.3437 85.4147 35.9065 84.8145 35.9065ZM47.0883 29.3401C47.6867 29.3401 48.1765 29.7775 48.1765 30.3791C48.1765 30.9797 47.6867 31.4194 47.0883 31.4194C46.5446 31.4194 46.0534 30.9797 46.0534 30.3791C46.0534 29.7775 46.5446 29.3401 47.0883 29.3401Z" fill="#1E1E1E"/>
  <path fill-rule="evenodd" clip-rule="evenodd" d="M18.9427 7.28638C19.5951 7.28638 20.141 7.83313 20.141 8.49014C20.141 9.14615 19.5951 9.6939 18.9427 9.6939C18.2358 9.6939 17.6897 9.14615 17.6897 8.49014C17.6897 7.83313 18.2358 7.28638 18.9427 7.28638Z" fill="#1E1E1E"/>
  <path fill-rule="evenodd" clip-rule="evenodd" d="M61.4606 24.9617H70.2788C74.0356 24.9617 77.0291 28.0257 77.0291 31.7479V41.4887C77.0291 45.2081 74.0356 48.2733 70.2788 48.2733H61.4606C57.7579 48.2733 54.7102 45.2081 54.7102 41.4887V31.7479C54.7102 28.0257 57.7579 24.9617 61.4606 24.9617Z" fill="#A48270"/>
  <path d="M70.2792 25.782H61.461C59.8274 25.782 58.3565 26.4929 57.2692 27.5326C56.1795 28.6273 55.5264 30.1053 55.5264 31.7476V41.4887C55.5264 43.1282 56.1795 44.607 57.2692 45.7021C58.3565 46.7953 59.8274 47.4517 61.461 47.4517H70.2792C71.9133 47.4517 73.3837 46.7953 74.4709 45.7021C75.5609 44.607 76.214 43.1282 76.214 41.4887V31.7476C76.214 30.1053 75.5609 28.6273 74.4709 27.5326C73.3837 26.4929 71.9133 25.782 70.2792 25.782ZM61.461 24.1404H70.2792C72.4026 24.1404 74.2538 25.0159 75.6703 26.3839C77.0295 27.7524 77.8473 29.6678 77.8473 31.7476V41.4887C77.8473 43.5682 77.0295 45.4816 75.6703 46.8504C74.2538 48.2732 72.4026 49.0938 70.2792 49.0938H61.461C59.3924 49.0938 57.4863 48.2732 56.1249 46.8504C54.7106 45.4816 53.8928 43.5682 53.8928 41.4887V31.7476C53.8928 29.6678 54.7106 27.7524 56.1249 26.3839C57.4863 25.0159 59.3924 24.1404 61.461 24.1404Z" fill="#1E1E1E"/>
</svg>