<svg width="132" height="105" viewBox="0 0 132 105" fill="none" xmlns="http://www.w3.org/2000/svg">
<g clip-path="url(#clip0_51_320)">
<path fill-rule="evenodd" clip-rule="evenodd" d="M75.6727 89.9531C75.6727 90.4773 75.6067 90.9544 75.4747 91.3839C75.3489 91.8072 75.1541 92.1738 74.8901 92.4833C74.6323 92.7928 74.2994 93.0297 73.8907 93.1941C73.4885 93.3582 73.0139 93.4405 72.4673 93.4405C71.9204 93.4405 71.4428 93.3582 71.0341 93.1941C70.6319 93.0235 70.2987 92.7866 70.0347 92.4833C69.7771 92.1738 69.5821 91.8042 69.4501 91.3744C69.3246 90.945 69.2618 90.4678 69.2618 89.9436C69.2618 89.2423 69.3749 88.6325 69.601 88.1144C69.8337 87.5964 70.1855 87.1951 70.657 86.9111C71.1346 86.6202 71.7413 86.4751 72.4767 86.4751C73.2057 86.4751 73.8059 86.6202 74.2773 86.9111C74.7487 87.1951 75.0976 87.5997 75.3239 88.1239C75.5564 88.6419 75.6727 89.2517 75.6727 89.9531ZM70.7607 89.9531C70.7607 90.4267 70.8205 90.8342 70.9398 91.1754C71.0592 91.5166 71.2448 91.7787 71.4961 91.962C71.7475 92.1453 72.0713 92.2369 72.4673 92.2369C72.8757 92.2369 73.2024 92.1453 73.4476 91.962C73.6992 91.7787 73.8813 91.5166 73.9944 91.1754C74.1138 90.8342 74.1736 90.4267 74.1736 89.9531C74.1736 89.239 74.0416 88.6798 73.7776 88.2756C73.5136 87.8713 73.0799 87.669 72.4767 87.669C72.0742 87.669 71.7475 87.7608 71.4961 87.9439C71.2448 88.1272 71.0592 88.3893 70.9398 88.7305C70.8205 89.0717 70.7607 89.4792 70.7607 89.9531ZM58.4586 87.6785C58.1884 87.6785 57.9465 87.7324 57.7326 87.8396C57.5254 87.9471 57.3493 88.1017 57.2049 88.304C57.0602 88.4998 56.9503 88.74 56.8749 89.0243C56.8057 89.3086 56.7712 89.6276 56.7712 89.9815C56.7712 90.4616 56.8277 90.8721 56.9409 91.2133C57.0602 91.5483 57.2456 91.8042 57.4972 91.981C57.7485 92.1578 58.0691 92.2464 58.4586 92.2464C58.7353 92.2464 59.0087 92.2147 59.2789 92.1516C59.5556 92.0885 59.8541 91.9999 60.1746 91.8862V93.0898C59.8791 93.2098 59.5868 93.2984 59.2978 93.3552C59.0087 93.4121 58.6849 93.4405 58.3266 93.4405C57.6354 93.4405 57.0634 93.2983 56.6109 93.014C56.1645 92.7232 55.8345 92.3189 55.6209 91.8009C55.4072 91.2767 55.3003 90.6669 55.3003 89.972C55.3003 89.4602 55.3695 88.9926 55.5077 88.5694C55.6459 88.1396 55.8472 87.7703 56.1112 87.4605C56.3814 87.151 56.7114 86.9111 57.1012 86.7405C57.4972 86.5699 57.9495 86.4846 58.4586 86.4846C58.7919 86.4846 59.1248 86.5287 59.4581 86.6173C59.7975 86.6993 60.121 86.813 60.4292 86.9582L59.9672 88.1239C59.7159 88.004 59.4613 87.8997 59.2035 87.8112C58.9521 87.7229 58.7038 87.6785 58.4586 87.6785ZM33.7826 87.1477C33.3866 86.7689 32.7549 86.5793 31.8874 86.5793H29.738V93.3457H31.1617V90.9385H31.7743C32.2646 90.9385 32.6764 90.8786 33.0094 90.7584C33.3426 90.6384 33.6096 90.4741 33.8109 90.2658C34.0183 90.0508 34.1659 89.8109 34.254 89.5455C34.3418 89.2737 34.386 88.9896 34.386 88.6926C34.386 88.0356 34.1848 87.5206 33.7826 87.1477ZM31.1617 87.7543H31.812C32.2018 87.7543 32.4879 87.8366 32.67 88.0007C32.8524 88.1586 32.9434 88.405 32.9434 88.74C32.9434 88.9801 32.8901 89.1759 32.7831 89.3276C32.6764 89.4792 32.5256 89.5897 32.3306 89.6593C32.1358 89.7286 31.9033 89.7635 31.6331 89.7635H31.1617V87.7543ZM39.367 86.8068C38.971 86.6552 38.4683 86.5793 37.8584 86.5793H35.8975V93.3457H37.3213V90.7489H38.0847L39.6876 93.3457H41.2713L39.2916 90.3983C39.5117 90.2972 39.7159 90.1678 39.9044 90.0099C40.0992 89.8456 40.2533 89.6498 40.3664 89.4223C40.4858 89.1884 40.5456 88.9168 40.5456 88.6073C40.5456 88.1524 40.4481 87.7765 40.2533 87.4795C40.0583 87.1762 39.763 86.952 39.367 86.8068ZM37.3213 87.7543H37.7547C38.0629 87.7543 38.3142 87.786 38.509 87.8491C38.7102 87.9059 38.8579 88.0007 38.9522 88.1334C39.0526 88.2598 39.103 88.4304 39.103 88.6452C39.103 88.8474 39.0591 89.021 38.971 89.1664C38.8829 89.3054 38.7417 89.4096 38.5467 89.4792C38.352 89.5485 38.0974 89.5834 37.783 89.5834H37.3213V87.7543ZM47.4267 93.3457H42.4204V92.417L45.6447 87.7638H42.5052V86.5793H47.3418V87.5079L44.1175 92.1611H47.4267V93.3457ZM53.0196 86.5793L51.6147 89.3655L50.2193 86.5793H48.6733L50.9076 90.7584V93.3457H52.3219V90.711L54.5562 86.5793H53.0196ZM66.168 93.3457H67.5917V86.5793H66.168V89.2328H63.4999V86.5793H62.0765V93.3457H63.4999V90.4267H66.168V93.3457ZM82.5179 91.8009C82.8069 91.2891 82.9516 90.6542 82.9516 89.8962C82.9516 89.1697 82.8069 88.5631 82.5179 88.0765C82.235 87.5837 81.8328 87.2111 81.311 86.9582C80.7957 86.7056 80.186 86.5793 79.4821 86.5793H77.3704V93.3457H79.2747C80.0478 93.3457 80.7078 93.216 81.2544 92.9572C81.8077 92.698 82.2288 92.3127 82.5179 91.8009ZM81.2544 88.702C81.3991 89.0243 81.4713 89.4348 81.4713 89.9341C81.4713 90.6731 81.3016 91.2293 80.9621 91.6019C80.623 91.9748 80.1044 92.1611 79.4067 92.1611H78.7938V87.7543H79.5575C79.9724 87.7543 80.3213 87.8334 80.6041 87.9912C80.8932 88.1429 81.11 88.3798 81.2544 88.702ZM90.4145 93.3457H88.6045L85.6722 88.2282H85.6345C85.6409 88.386 85.6472 88.5472 85.6534 88.7115C85.6598 88.8694 85.666 89.0305 85.6722 89.1949C85.6849 89.3527 85.6943 89.5139 85.7005 89.6782C85.7069 89.8361 85.7132 89.9972 85.7194 90.1616V93.3457H84.4468V86.5793H86.2474L89.17 91.6493H89.1982C89.192 91.4914 89.1859 91.3365 89.1794 91.1849C89.1732 91.027 89.167 90.8721 89.1605 90.7205C89.1605 90.5626 89.1576 90.4077 89.1511 90.2563L89.1323 89.7825V86.5793H90.4145V93.3457ZM92.0407 93.3457H95.1048V92.5307L94.2845 92.1516V87.7733L95.1048 87.3942V86.5793H92.0407V87.3942L92.8608 87.7733V92.1516L92.0407 92.5307V93.3457ZM101.217 93.3457L100.727 91.7346H98.2755L97.7852 93.3457H96.2483L98.6243 86.5509H100.368L102.754 93.3457H101.217ZM99.8969 88.9579C99.8657 88.8504 99.8248 88.7148 99.7744 88.5504C99.7243 88.3861 99.6739 88.2187 99.6235 88.0481C99.5734 87.8775 99.5325 87.7291 99.5012 87.6027C99.4697 87.7291 99.4258 87.887 99.3692 88.0765C99.3188 88.2598 99.2685 88.4367 99.2183 88.6073C99.1742 88.7716 99.1397 88.8883 99.1146 88.9579L98.6338 90.5309H100.387L99.8969 88.9579ZM30.1441 102.822L31.8599 96.056H30.4553L29.5973 99.752C29.5658 99.8971 29.5251 100.08 29.4747 100.302C29.4308 100.523 29.3898 100.744 29.3521 100.965C29.3144 101.18 29.2861 101.366 29.2673 101.524C29.2549 101.41 29.236 101.278 29.2107 101.126C29.1856 100.968 29.1574 100.807 29.1258 100.643C29.0946 100.479 29.0631 100.327 29.0316 100.188C29.0003 100.043 28.975 99.9288 28.9561 99.8468L27.9758 96.056H26.6275L25.647 99.8468C25.6219 99.9288 25.5936 100.043 25.5621 100.188C25.537 100.327 25.5087 100.479 25.4772 100.643C25.446 100.801 25.4177 100.959 25.3924 101.116C25.3673 101.268 25.3485 101.404 25.3358 101.524C25.3234 101.41 25.3013 101.275 25.2698 101.116C25.2447 100.959 25.2165 100.797 25.185 100.633C25.1537 100.463 25.1222 100.302 25.0907 100.15C25.0594 99.9919 25.0311 99.8592 25.0061 99.752L24.148 96.056H22.7432L24.4591 102.822H26.0807L26.9858 99.2781C27.0047 99.2023 27.0297 99.0948 27.0612 98.9559C27.0927 98.8105 27.124 98.6588 27.1555 98.501C27.187 98.3366 27.2153 98.182 27.2404 98.0366C27.2719 97.8849 27.2907 97.7682 27.297 97.6859C27.3094 97.7682 27.3282 97.8849 27.3535 98.0366C27.3786 98.182 27.4069 98.3366 27.4384 98.501C27.4761 98.6653 27.5074 98.817 27.5327 98.9559C27.5639 99.0948 27.5892 99.199 27.6081 99.2686L28.5224 102.822H30.1441ZM36.9364 102.822H33.0615V96.056H36.9364V97.231H34.485V98.7189H36.7667V99.8942H34.485V101.638H36.9364V102.822ZM40.094 102.822H41.5177V97.2499H43.3466V96.056H38.2651V97.2499H40.094V102.822ZM48.7308 102.822H44.8559V96.056H48.7308V97.231H46.2796V98.7189H48.5611V99.8942H46.2796V101.638H48.7308V102.822ZM53.8843 96.2835C53.4883 96.1319 52.9853 96.056 52.3757 96.056H50.4148V102.822H51.8383V100.226H52.602L54.2046 102.822H55.7886L53.8089 99.8752C54.0287 99.7739 54.2329 99.6445 54.4215 99.4866C54.6165 99.3223 54.7703 99.1265 54.8835 98.899C55.0031 98.6653 55.0626 98.3935 55.0626 98.084C55.0626 97.629 54.9653 97.2532 54.7703 96.9564C54.5755 96.6531 54.28 96.4286 53.8843 96.2835ZM51.8383 97.231H52.272C52.5799 97.231 52.8313 97.2627 53.0263 97.3258C53.2273 97.3826 53.3751 97.4774 53.4694 97.6101C53.5699 97.7365 53.6203 97.9071 53.6203 98.1219C53.6203 98.3241 53.5761 98.4977 53.4883 98.6431C53.4002 98.782 53.2588 98.8863 53.064 98.9559C52.869 99.0255 52.6147 99.0601 52.3003 99.0601H51.8383V97.231ZM59.203 98.8422L60.6076 96.056H62.1445L59.9101 100.188V102.822H58.4958V100.235L56.2615 96.056H57.8076L59.203 98.8422ZM67.6222 102.822H69.4325V96.056H68.1502V99.2592L68.1691 99.733C68.1753 99.8847 68.1785 100.039 68.1785 100.197C68.1847 100.349 68.1911 100.504 68.1973 100.662C68.2035 100.813 68.21 100.968 68.2162 101.126H68.1879L65.2653 96.056H63.4645V102.822H64.7373V99.6383C64.7311 99.4739 64.7247 99.3128 64.7185 99.1549C64.7122 98.9905 64.7028 98.8294 64.6902 98.6716C64.684 98.5072 64.6775 98.3461 64.6713 98.1882C64.6651 98.0241 64.6587 97.863 64.6525 97.7049H64.6902L67.6222 102.822ZM75.8665 102.822L75.3762 101.211H72.925L72.4347 102.822H70.8981L73.2739 96.0276H75.0179L77.4034 102.822H75.8665ZM74.5465 98.4346C74.5152 98.3271 74.4743 98.1914 74.4242 98.0271C74.3738 97.863 74.3234 97.6954 74.2733 97.5248C74.2229 97.3542 74.182 97.2058 74.1507 97.0794C74.1192 97.2058 74.0753 97.3637 74.0187 97.5532C73.9684 97.7365 73.918 97.9134 73.8679 98.084C73.8237 98.2483 73.7892 98.365 73.7642 98.4346L73.2833 100.008H75.0368L74.5465 98.4346ZM82.1968 96.2835C81.8008 96.1319 81.2979 96.056 80.6882 96.056H78.7273V102.822H80.1508V100.226H80.9145L82.5171 102.822H84.1011L82.1214 99.8752C82.3412 99.7739 82.5454 99.6445 82.734 99.4866C82.929 99.3223 83.0828 99.1265 83.196 98.899C83.3156 98.6653 83.3751 98.3935 83.3751 98.084C83.3751 97.629 83.2779 97.2532 83.0828 96.9564C82.8881 96.6531 82.5925 96.4286 82.1968 96.2835ZM80.1508 97.231H80.5845C80.8924 97.231 81.144 97.2627 81.3388 97.3258C81.5398 97.3826 81.6876 97.4774 81.7819 97.6101C81.8824 97.7365 81.9328 97.9071 81.9328 98.1219C81.9328 98.3241 81.8886 98.4977 81.8008 98.6431C81.7127 98.782 81.5713 98.8863 81.3765 98.9559C81.1817 99.0255 80.9272 99.0601 80.6128 99.0601H80.1508V97.231ZM87.3743 98.8422L88.7789 96.056H90.3158L88.0815 100.188V102.822H86.6672V100.235L84.4329 96.056H85.9789L87.3743 98.8422ZM90.6364 104.775C90.7746 104.8 90.9348 104.812 91.117 104.812C91.5383 104.812 91.909 104.73 92.2295 104.566C92.5501 104.408 92.7985 104.149 92.9744 103.789C93.1568 103.435 93.2478 102.968 93.2478 102.386V96.056H91.8241V102.396C91.8241 102.724 91.7864 102.977 91.711 103.154C91.6355 103.331 91.5288 103.451 91.3904 103.514C91.2584 103.577 91.1108 103.609 90.9475 103.609C90.8217 103.609 90.7053 103.6 90.5986 103.581C90.4855 103.562 90.3786 103.539 90.2781 103.514V104.708C90.3786 104.734 90.4979 104.756 90.6364 104.775ZM101.277 102.822H99.4672L96.5352 97.7049H96.4975C96.5037 97.863 96.5101 98.0241 96.5163 98.1882C96.5225 98.3461 96.529 98.5072 96.5352 98.6716C96.5478 98.8294 96.5573 98.9905 96.5635 99.1549C96.5697 99.3128 96.5761 99.4739 96.5823 99.6383V102.822H95.3095V96.056H97.1103L100.033 101.126H100.061C100.055 100.968 100.049 100.813 100.042 100.662C100.036 100.504 100.03 100.349 100.023 100.197C100.023 100.039 100.02 99.8847 100.014 99.733L99.9952 99.2592V96.056H101.277V102.822ZM107.187 101.211L107.678 102.822H109.214L106.829 96.0276H105.085L102.709 102.822H104.246L104.736 101.211H107.187ZM106.235 98.0271C106.285 98.1914 106.326 98.3271 106.358 98.4346L106.848 100.008H105.094L105.575 98.4346C105.6 98.365 105.635 98.2483 105.679 98.084C105.729 97.9134 105.779 97.7365 105.83 97.5532C105.886 97.3637 105.93 97.2058 105.962 97.0794C105.993 97.2058 106.034 97.3542 106.084 97.5248C106.134 97.6954 106.185 97.863 106.235 98.0271ZM22.7432 89.7882C22.7432 89.1577 23.1994 88.6978 23.8282 88.6978C24.4554 88.6978 24.9115 89.1577 24.9115 89.7882C24.9115 90.4187 24.4554 90.8774 23.8282 90.8774C23.1994 90.8774 22.7432 90.4187 22.7432 89.7882ZM107.046 89.7882C107.046 89.1577 107.502 88.6978 108.131 88.6978C108.758 88.6978 109.214 89.1577 109.214 89.7882C109.214 90.4187 108.758 90.8774 108.131 90.8774C107.502 90.8774 107.046 90.4187 107.046 89.7882Z" fill="#1E1E1E"/>
<path d="M26.6935 65.0457C28.1435 65.0457 29.2256 65.3617 29.9399 65.9941C30.6649 66.6264 31.0274 67.5265 31.0274 68.6947C31.0274 69.22 30.953 69.7235 30.8036 70.2059C30.6543 70.6775 30.4091 71.1062 30.068 71.4921C29.7375 71.8672 29.2951 72.1672 28.7405 72.3922C28.1862 72.6067 27.5039 72.7136 26.6935 72.7136H25.8298V76.5236H22.7432V65.0457H26.6935ZM26.6295 67.5534H25.8298V70.1899H26.4375C26.7042 70.1899 26.9493 70.147 27.1731 70.0612C27.4079 69.9647 27.5944 69.8148 27.7329 69.611C27.8716 69.3968 27.9408 69.1182 27.9408 68.7753C27.9408 68.4109 27.8344 68.1161 27.621 67.8911C27.4079 67.6659 27.0774 67.5534 26.6295 67.5534Z" fill="#1E1E1E"/>
<path d="M41.0684 65.0457C42.1026 65.0457 42.9608 65.1741 43.6434 65.4315C44.3364 65.6886 44.8535 66.069 45.1946 66.5728C45.5465 67.0658 45.7224 67.6874 45.7224 68.4376C45.7224 68.8985 45.6425 69.3217 45.4824 69.7076C45.3331 70.0934 45.1145 70.4363 44.8267 70.7364C44.5388 71.0364 44.1925 71.299 43.7873 71.5242L47.1136 76.5236H43.6114L41.1964 72.344H40.4126V76.5236H37.326V65.0457H41.0684ZM41.0205 67.3926H40.4126V70.0131H40.9885C41.3083 70.0131 41.5855 69.9702 41.8202 69.8844C42.0653 69.7879 42.2571 69.638 42.3958 69.4342C42.5345 69.22 42.6038 68.9359 42.6038 68.5822C42.6038 68.3358 42.5504 68.1268 42.4437 67.9552C42.3373 67.7732 42.1666 67.6337 41.9321 67.5372C41.6974 67.4409 41.3937 67.3926 41.0205 67.3926Z" fill="#1E1E1E"/>
<path d="M60.2719 76.5235L59.7121 74.3694H56.0017L55.4261 76.5235H52.0355L55.762 64.9972H59.8722L63.6463 76.5235H60.2719ZM58.5767 69.9487C58.5234 69.7449 58.4487 69.4556 58.3527 69.0805C58.2569 68.6946 58.1609 68.2981 58.0648 67.8911C57.9691 67.4838 57.8944 67.1516 57.841 66.8942C57.7984 67.1516 57.7291 67.473 57.6331 67.8589C57.5478 68.2447 57.4572 68.6251 57.3612 69.0002C57.2758 69.3753 57.2014 69.6915 57.1374 69.9487L56.6416 71.8294H59.0725L58.5767 69.9487Z" fill="#1E1E1E"/>
<path d="M76.8178 73.0351C76.8178 73.6569 76.658 74.2462 76.3382 74.8036C76.0291 75.3608 75.5437 75.8162 74.8827 76.1699C74.2324 76.5128 73.3848 76.6844 72.34 76.6844C71.8175 76.6844 71.3589 76.6577 70.9647 76.6041C70.5808 76.5612 70.2183 76.4861 69.8772 76.3789C69.5358 76.2719 69.1839 76.1325 68.8214 75.9609V73.196C69.44 73.5067 70.0637 73.7479 70.6927 73.9195C71.3217 74.0801 71.8921 74.1604 72.404 74.1604C72.7132 74.1604 72.9638 74.123 73.1556 74.0479C73.3474 73.9729 73.4915 73.8711 73.5873 73.7424C73.6833 73.614 73.7312 73.4693 73.7312 73.3085C73.7312 73.1049 73.662 72.9333 73.5235 72.7942C73.3848 72.6548 73.1662 72.5101 72.8678 72.36C72.5693 72.2101 72.1693 72.0225 71.6683 71.7973C71.2418 71.6045 70.858 71.4008 70.5168 71.1865C70.1757 70.9723 69.8824 70.7311 69.6372 70.463C69.4025 70.1951 69.2214 69.8844 69.0934 69.5307C68.9656 69.1663 68.9016 68.7376 68.9016 68.2448C68.9016 67.5053 69.0827 66.889 69.4452 66.3959C69.8077 65.8921 70.3089 65.517 70.9485 65.2706C71.5989 65.0135 72.3507 64.8848 73.2035 64.8848C73.9498 64.8848 74.6217 64.9706 75.2187 65.1421C75.8157 65.3028 76.3489 65.4903 76.8178 65.7046L75.8745 68.0999C75.3839 67.8749 74.8989 67.6981 74.419 67.5694C73.9498 67.4302 73.5129 67.3604 73.1077 67.3604C72.841 67.3604 72.6224 67.3925 72.4519 67.4569C72.2812 67.5212 72.1534 67.6123 72.0681 67.7302C71.9934 67.8375 71.9562 67.9607 71.9562 68.0999C71.9562 68.2822 72.0254 68.4428 72.1641 68.5822C72.3025 68.7216 72.5318 68.877 72.8516 69.0484C73.1821 69.2092 73.63 69.4182 74.1952 69.6754C74.7495 69.9218 75.2187 70.1951 75.6025 70.4952C75.997 70.7847 76.2955 71.1329 76.498 71.5402C76.7114 71.9367 76.8178 72.435 76.8178 73.0351Z" fill="#1E1E1E"/>
<path d="M92.8131 76.5236H89.3268L87.0716 72.135L86.1601 72.6815V76.5236H83.0576V65.0457H86.1601V70.029C86.2881 69.7826 86.4374 69.536 86.6079 69.2895C86.7786 69.0324 86.9439 68.7912 87.1036 68.5663L89.5027 65.0457H92.8772L89.2787 70.1899L92.8131 76.5236Z" fill="#1E1E1E"/>
<path d="M105.84 76.5235L105.28 74.3694H101.57L100.994 76.5235H97.6033L101.33 64.9972H105.44L109.214 76.5235H105.84ZM104.145 69.9487C104.091 69.7449 104.016 69.4556 103.92 69.0805C103.825 68.6946 103.729 68.2981 103.633 67.8911C103.537 67.4838 103.462 67.1516 103.409 66.8942C103.366 67.1516 103.297 67.473 103.201 67.8589C103.116 68.2447 103.025 68.6251 102.929 69.0002C102.844 69.3753 102.769 69.6915 102.705 69.9487L102.209 71.8294H104.64L104.145 69.9487Z" fill="#1E1E1E"/>
<path fill-rule="evenodd" clip-rule="evenodd" d="M38.8142 47.944C32.8231 58.6695 38.5961 55.1666 45.5095 47.944H34.2408C33.6957 47.944 33.0975 47.8899 32.5536 47.8351C27.5977 57.1369 29.395 56.8636 38.8142 47.944ZM96.0302 48.0538C92.2196 54.8384 93.1441 55.934 96.0302 54.0186C97.7182 52.9232 104.034 47.1225 106.156 44.0044C104.034 46.4112 100.929 47.944 97.4988 47.944H89.7151C84.7599 57.301 86.5567 56.9728 96.0302 48.0538ZM105.775 28.134C116.01 31.692 125.047 30.0501 130.054 24.6325H97.4988C100.712 24.6325 103.652 25.9998 105.775 28.134ZM36.9602 24.6325C33.2059 24.5228 30.8093 23.483 29.7757 19.8167C30.9195 19.7617 31.8986 19.2152 32.3879 18.8862C34.8939 17.0252 33.3143 11.3896 31.9529 8.10657C30.9195 5.58856 29.395 3.50929 27.3257 0.9375C21.7723 1.1565 17.9615 3.56403 15.8946 8.10657H1.57666C4.67913 12.4839 9.14282 15.0566 15.0766 15.7674C18.8879 20.1443 21.4464 27.2583 22.6994 37.1101C22.6994 36.8345 22.6425 36.5614 22.6425 36.288C22.6425 29.8858 27.8703 24.6325 34.2408 24.6325H36.9602Z" fill="#FCEDC6"/>
<path fill-rule="evenodd" clip-rule="evenodd" d="M34.2406 24.6324H97.4989C103.87 24.6324 109.095 29.8858 109.095 36.2878C109.095 42.6896 103.87 47.9441 97.4989 47.9441H34.2406C27.8701 47.9441 22.6425 42.6896 22.6425 36.2878C22.6425 29.8858 27.8701 24.6324 34.2406 24.6324Z" fill="#CBAF95"/>
<path d="M97.4991 25.4529H34.2409C31.3007 25.4529 28.5775 26.7117 26.6712 28.6264C24.7134 30.5967 23.5154 33.3339 23.5154 36.2879C23.5154 39.2434 24.7134 41.9796 26.6712 43.9494C28.5775 45.9197 31.3007 47.1226 34.2409 47.1226H97.4991C100.439 47.1226 103.161 45.9197 105.066 43.9494C107.026 41.9796 108.279 39.2434 108.279 36.2879C108.279 33.3339 107.026 30.5967 105.066 28.6264C103.161 26.7117 100.439 25.4529 97.4991 25.4529ZM34.2409 23.8113H97.4991C100.929 23.8113 104.034 25.2332 106.266 27.4784C108.497 29.7218 109.913 32.8399 109.913 36.2879C109.913 39.7359 108.497 42.854 106.266 45.0974C104.034 47.3426 100.929 48.7647 97.4991 48.7647H34.2409C30.8657 48.7647 27.7612 47.3426 25.4755 45.0974C23.2432 42.854 21.8293 39.7359 21.8293 36.2879C21.8293 32.8399 23.2432 29.7218 25.4755 27.4784C27.7612 25.2332 30.8657 23.8113 34.2409 23.8113Z" fill="#1E1E1E"/>
<path d="M97.4989 23.8113H131.96L130.654 25.2332C127.987 28.0799 124.177 29.9949 119.656 30.5967C115.41 31.1995 110.511 30.7057 105.393 28.901L105.884 27.3143C110.838 29.0653 115.465 29.5577 119.439 28.9561C122.76 28.5174 125.699 27.3143 127.987 25.4529H97.4989V23.8113Z" fill="#1E1E1E"/>
<path d="M33.2608 48.2172C32.2271 50.0783 30.9741 52.7043 30.8093 53.636C31.8445 53.0322 33.6957 51.666 38.2696 47.3425L39.5749 48.3269C37.9418 51.1712 37.2347 52.923 37.126 53.8545C37.2892 53.7994 37.3431 53.7994 37.6696 53.636C39.3032 52.7591 42.0246 50.4065 44.909 47.3971L46.1072 48.4913C43.06 51.666 40.2282 54.1825 38.4313 55.1115C37.6696 55.4966 37.0176 55.6605 36.5253 55.4966C35.7645 55.2759 35.438 54.7292 35.4924 53.6902C35.5465 53.1963 35.7645 52.4858 36.1469 51.556C33.1513 54.1825 31.246 55.5512 30.3215 55.5512C28.307 55.6056 28.4683 52.923 31.7897 47.4525L33.2608 48.2172Z" fill="#1E1E1E"/>
<path d="M21.8814 37.2191C21.2283 32.3477 20.3019 28.1338 19.0513 24.6325C17.853 21.3498 16.3821 18.613 14.6423 16.5337C11.7013 16.1505 9.1428 15.3299 6.85709 14.0155C4.5157 12.7024 2.50186 10.8964 0.922291 8.59837L-0.00195312 7.2856H15.4032C17.6351 2.74281 21.6098 0.390022 27.2719 0.0620117H27.6522L27.9242 0.390022C29.0139 1.70329 29.8841 2.9078 30.6999 4.05706C31.4639 5.26082 32.171 6.46458 32.7144 7.7776C33.5325 9.80213 34.4026 12.5934 34.5113 15.001C34.5674 16.9162 34.1848 18.558 32.8794 19.5435C32.2268 19.981 30.8093 20.7472 29.1772 20.5833C28.0897 20.4732 26.9454 20.0353 25.8556 18.8315C25.0398 18.0107 24.4964 16.2055 24.1134 14.0155C23.7321 11.4987 23.5152 8.37987 23.5152 5.58859H25.1487C25.1487 8.3251 25.3656 11.3349 25.7472 13.7422C26.0752 15.6032 26.5102 17.1359 27.054 17.7375C27.8158 18.558 28.6336 18.8863 29.3407 18.9412C30.4828 19.0505 31.4639 18.558 31.8986 18.2297C32.6618 17.6275 32.934 16.424 32.8794 15.0567C32.771 12.8667 31.9529 10.2951 31.1919 8.43436C30.6999 7.2306 30.0474 6.13633 29.3407 4.98732C28.6336 3.94755 27.8158 2.9078 26.9454 1.75779C21.9378 2.08678 18.5616 4.33031 16.6562 8.43436L16.439 8.92736H3.26344C4.5157 10.4044 5.98437 11.6629 7.67241 12.5934C9.79592 13.7972 12.3012 14.5634 15.186 14.946L15.675 15.2207C17.6896 17.4642 19.3231 20.419 20.6284 24.0845C21.8814 27.6966 22.8621 32.0198 23.5152 36.9987L21.8814 37.2191Z" fill="#1E1E1E"/>
<path d="M30.5389 19.5978C31.0287 21.1855 31.7356 22.2245 32.7708 22.8268C33.8042 23.4831 35.2205 23.7563 36.9603 23.8113L36.9079 25.4531C34.8939 25.399 33.2606 25.0701 31.8986 24.2488C30.5389 23.4291 29.5576 22.1146 28.9601 20.0353L30.5389 19.5978Z" fill="#1E1E1E"/>
<path d="M90.4227 48.3269C88.6261 51.8293 88.2993 52.4309 87.8098 53.9635C88.6799 53.3606 90.9118 51.7749 95.4303 47.4525L96.7371 48.4912C95.2122 51.1714 94.4514 52.9229 94.342 53.8545V54.0186C94.6137 53.9096 95.0489 53.6904 95.5409 53.3606C96.4652 52.7591 98.8603 50.6795 101.147 48.4364C102.889 46.6845 104.577 44.8242 105.501 43.5118L106.863 44.4409C105.884 45.8647 104.087 47.7799 102.291 49.5856C99.95 51.8842 97.444 54.0727 96.4652 54.7294C95.595 55.2758 94.8318 55.6055 94.2879 55.6607C93.6895 55.7153 93.2523 55.5512 92.9265 55.0576C92.7084 54.7294 92.6 54.2371 92.7084 53.636C92.763 53.1417 92.9803 52.4857 93.3069 51.6659C90.3679 54.2917 88.408 55.6607 87.4832 55.6607C84.9231 55.6055 85.9042 53.3606 89.0064 47.5614L90.4227 48.3269Z" fill="#1E1E1E"/>
<path fill-rule="evenodd" clip-rule="evenodd" d="M43.5496 32.2933C44.0932 32.2933 44.5823 32.73 44.5823 33.3338C44.5823 33.9351 44.0932 34.3728 43.5496 34.3728C42.9511 34.3728 42.4598 33.9351 42.4598 33.3338C42.4598 32.73 42.9511 32.2933 43.5496 32.2933ZM39.9561 29.0109C40.5545 29.0109 40.9887 29.4483 40.9887 30.0499C40.9887 30.6505 40.5545 31.0902 39.9561 31.0902C39.3576 31.0902 38.8663 30.6505 38.8663 30.0499C38.8663 29.4483 39.3576 29.0109 39.9561 29.0109ZM36.3643 32.2933C36.9602 32.2933 37.3977 32.73 37.3977 33.3338C37.3977 33.9351 36.9602 34.3728 36.3643 34.3728C35.7643 34.3728 35.3291 33.9351 35.3291 33.3338C35.3291 32.73 35.7643 32.2933 36.3643 32.2933ZM39.9561 35.5772C40.5545 35.5772 40.9887 36.0144 40.9887 36.616C40.9887 37.2191 40.5545 37.6565 39.9561 37.6565C39.3576 37.6565 38.8663 37.2191 38.8663 36.616C38.8663 36.0144 39.3576 35.5772 39.9561 35.5772ZM36.3643 38.8597C36.9602 38.8597 37.3977 39.2984 37.3977 39.8997C37.3977 40.5013 36.9602 40.9387 36.3643 40.9387C35.7643 40.9387 35.3291 40.5013 35.3291 39.8997C35.3291 39.2984 35.7643 38.8597 36.3643 38.8597ZM39.9561 42.1433C40.5545 42.1433 40.9887 42.5806 40.9887 43.1836C40.9887 43.7852 40.5545 44.2226 39.9561 44.2226C39.3576 44.2226 38.8663 43.7852 38.8663 43.1836C38.8663 42.5806 39.3576 42.1433 39.9561 42.1433ZM43.5496 38.8597C44.0932 38.8597 44.5823 39.2984 44.5823 39.8997C44.5823 40.5013 44.0932 40.9387 43.5496 40.9387C42.9511 40.9387 42.4598 40.5013 42.4598 39.8997C42.4598 39.2984 42.9511 38.8597 43.5496 38.8597ZM47.0883 42.1433C47.6867 42.1433 48.1765 42.5806 48.1765 43.1836C48.1765 43.7852 47.6867 44.2226 47.0883 44.2226C46.5446 44.2226 46.0534 43.7852 46.0534 43.1836C46.0534 42.5806 46.5446 42.1433 47.0883 42.1433ZM47.0883 35.5772C47.6867 35.5772 48.1765 36.0144 48.1765 36.616C48.1765 37.2191 47.6867 37.6565 47.0883 37.6565C46.5446 37.6565 46.0534 37.2191 46.0534 36.616C46.0534 36.0144 46.5446 35.5772 47.0883 35.5772ZM84.8145 29.0109C84.2708 29.0109 83.781 29.4483 83.781 30.0499C83.781 30.6505 84.2708 31.0902 84.8145 31.0902C85.4147 31.0902 85.9042 30.6505 85.9042 30.0499C85.9042 29.4483 85.4147 29.0109 84.8145 29.0109ZM88.408 32.2933C87.8641 32.2933 87.3743 32.73 87.3743 33.3338C87.3743 33.9351 87.8641 34.3728 88.408 34.3728C89.0065 34.3728 89.4977 33.9351 89.4977 33.3338C89.4977 32.73 89.0065 32.2933 88.408 32.2933ZM92.0015 29.0109C91.4031 29.0109 90.9664 29.4483 90.9664 30.0499C90.9664 30.6505 91.4031 31.0902 92.0015 31.0902C92.6 31.0902 93.0349 30.6505 93.0349 30.0499C93.0349 29.4483 92.6 29.0109 92.0015 29.0109ZM95.595 32.2933C94.9951 32.2933 94.5599 32.73 94.5599 33.3338C94.5599 33.9351 94.9951 34.3728 95.595 34.3728C96.1933 34.3728 96.6287 33.9351 96.6287 33.3338C96.6287 32.73 96.1933 32.2933 95.595 32.2933ZM92.0015 35.5772C91.4031 35.5772 90.9664 36.0144 90.9664 36.616C90.9664 37.2191 91.4031 37.6565 92.0015 37.6565C92.6 37.6565 93.0349 37.2191 93.0349 36.616C93.0349 36.0144 92.6 35.5772 92.0015 35.5772ZM95.595 38.8597C94.9951 38.8597 94.5599 39.2984 94.5599 39.8997C94.5599 40.5013 94.9951 40.9387 95.595 40.9387C96.1933 40.9387 96.6287 40.5013 96.6287 39.8997C96.6287 39.2984 96.1933 38.8597 95.595 38.8597ZM92.0015 42.1433C91.4031 42.1433 90.9664 42.5806 90.9664 43.1836C90.9664 43.7852 91.4031 44.2226 92.0015 44.2226C92.6 44.2226 93.0349 43.7852 93.0349 43.1836C93.0349 42.5806 92.6 42.1433 92.0015 42.1433ZM88.408 38.8597C87.8641 38.8597 87.3743 39.2984 87.3743 39.8997C87.3743 40.5013 87.8641 40.9387 88.408 40.9387C89.0065 40.9387 89.4977 40.5013 89.4977 39.8997C89.4977 39.2984 89.0065 38.8597 88.408 38.8597ZM84.8145 42.1433C84.2708 42.1433 83.781 42.5806 83.781 43.1836C83.781 43.7852 84.2708 44.2226 84.8145 44.2226C85.4147 44.2226 85.9042 43.7852 85.9042 43.1836C85.9042 42.5806 85.4147 42.1433 84.8145 42.1433ZM84.8145 35.5772C84.2708 35.5772 83.781 36.0144 83.781 36.616C83.781 37.2191 84.2708 37.6565 84.8145 37.6565C85.4147 37.6565 85.9042 37.2191 85.9042 36.616C85.9042 36.0144 85.4147 35.5772 84.8145 35.5772ZM47.0883 29.0109C47.6867 29.0109 48.1765 29.4483 48.1765 30.0499C48.1765 30.6505 47.6867 31.0902 47.0883 31.0902C46.5446 31.0902 46.0534 30.6505 46.0534 30.0499C46.0534 29.4483 46.5446 29.0109 47.0883 29.0109Z" fill="#1E1E1E"/>
<path fill-rule="evenodd" clip-rule="evenodd" d="M18.9427 6.95728C19.5951 6.95728 20.141 7.50402 20.141 8.16103C20.141 8.81705 19.5951 9.36479 18.9427 9.36479C18.2358 9.36479 17.6897 8.81705 17.6897 8.16103C17.6897 7.50402 18.2358 6.95728 18.9427 6.95728Z" fill="#1E1E1E"/>
<path fill-rule="evenodd" clip-rule="evenodd" d="M61.4606 24.6324H70.2788C74.0356 24.6324 77.0292 27.6965 77.0292 31.4186V41.1594C77.0292 44.8788 74.0356 47.944 70.2788 47.944H61.4606C57.7579 47.944 54.7103 44.8788 54.7103 41.1594V31.4186C54.7103 27.6965 57.7579 24.6324 61.4606 24.6324Z" fill="#A48270"/>
<path d="M70.2791 25.4529H61.4609C59.8272 25.4529 58.3564 26.1638 57.2691 27.2035C56.1794 28.2982 55.5263 29.7762 55.5263 31.4185V41.1595C55.5263 42.7991 56.1794 44.2779 57.2691 45.373C58.3564 46.4662 59.8272 47.1226 61.4609 47.1226H70.2791C71.9132 47.1226 73.3835 46.4662 74.4708 45.373C75.5608 44.2779 76.2139 42.7991 76.2139 41.1595V31.4185C76.2139 29.7762 75.5608 28.2982 74.4708 27.2035C73.3835 26.1638 71.9132 25.4529 70.2791 25.4529ZM61.4609 23.8113H70.2791C72.4025 23.8113 74.2537 24.6868 75.6702 26.0548C77.0294 27.4233 77.8472 29.3387 77.8472 31.4185V41.1595C77.8472 43.2391 77.0294 45.1525 75.6702 46.5213C74.2537 47.9441 72.4025 48.7647 70.2791 48.7647H61.4609C59.3923 48.7647 57.4862 47.9441 56.1248 46.5213C54.7105 45.1525 53.8927 43.2391 53.8927 41.1595V31.4185C53.8927 29.3387 54.7105 27.4233 56.1248 26.0548C57.4862 24.6868 59.3923 23.8113 61.4609 23.8113Z" fill="#1E1E1E"/>
</g>
<defs>
<clipPath id="clip0_51_320">
<rect width="132" height="105" fill="white"/>
</clipPath>
</defs>
</svg>
