<svg width="13" height="14" viewBox="0 0 13 14" fill="none" xmlns="http://www.w3.org/2000/svg">
<path d="M12.9925 10.3332C12.8811 11.1801 12.4651 11.9575 11.8224 12.5202C11.1797 13.0828 10.3542 13.3923 9.50001 13.3907C4.53751 13.3907 0.500006 9.35324 0.500006 4.39074C0.498474 3.53655 0.807935 2.71101 1.37059 2.0683C1.93324 1.4256 2.71061 1.00968 3.55751 0.898243C3.77166 0.872093 3.98854 0.915906 4.17575 1.02314C4.36296 1.13038 4.51047 1.29528 4.59626 1.49324L5.91626 4.44012V4.44762C5.98194 4.59915 6.00906 4.76459 5.99521 4.92917C5.98136 5.09374 5.92696 5.25232 5.83688 5.39074C5.82563 5.40762 5.81376 5.42324 5.80126 5.43887L4.50001 6.98137C4.96813 7.93262 5.96313 8.91887 6.92688 9.38824L8.44813 8.09387C8.46307 8.08131 8.47872 8.06962 8.49501 8.05887C8.63331 7.96662 8.79244 7.91031 8.95799 7.89503C9.12353 7.87975 9.29028 7.90599 9.44313 7.97137L9.45126 7.97512L12.3956 9.29449C12.5939 9.37998 12.7592 9.52735 12.8668 9.71459C12.9744 9.90183 13.0185 10.1189 12.9925 10.3332Z" fill="#191970"/>
</svg>
