<svg width="9" height="13" viewBox="0 0 9 13" fill="none" xmlns="http://www.w3.org/2000/svg">
<path d="M6.93744 11.7812C6.93744 11.889 6.89464 11.9923 6.81846 12.0685C6.74227 12.1447 6.63894 12.1875 6.53119 12.1875H2.46869C2.36095 12.1875 2.25762 12.1447 2.18143 12.0685C2.10525 11.9923 2.06244 11.889 2.06244 11.7812C2.06244 11.6735 2.10525 11.5702 2.18143 11.494C2.25762 11.4178 2.36095 11.375 2.46869 11.375H6.53119C6.63894 11.375 6.74227 11.4178 6.81846 11.494C6.89464 11.5702 6.93744 11.6735 6.93744 11.7812ZM8.96869 5.28123C8.97045 5.95848 8.81745 6.62716 8.52139 7.23627C8.22534 7.84537 7.79404 8.37879 7.26041 8.79581C7.16064 8.87229 7.07966 8.97057 7.02369 9.08314C6.96771 9.1957 6.93821 9.31958 6.93744 9.4453V9.74998C6.93744 9.96547 6.85184 10.1721 6.69947 10.3245C6.5471 10.4769 6.34043 10.5625 6.12494 10.5625H2.87494C2.65946 10.5625 2.45279 10.4769 2.30042 10.3245C2.14805 10.1721 2.06244 9.96547 2.06244 9.74998V9.4453C2.06236 9.32108 2.0338 9.19854 1.97896 9.0871C1.92411 8.97565 1.84444 8.87825 1.74608 8.80241C1.21379 8.38785 0.78278 7.85764 0.485676 7.25191C0.188571 6.64617 0.033156 5.98079 0.0311944 5.30612C0.0179913 2.88588 1.97409 0.870375 4.39229 0.812485C4.98813 0.798126 5.58082 0.903106 6.13548 1.12124C6.69015 1.33938 7.19557 1.66627 7.622 2.08267C8.04843 2.49907 8.38726 2.99657 8.61853 3.54588C8.84981 4.09519 8.96887 4.68522 8.96869 5.28123ZM6.41237 5.40006C6.37464 5.36229 6.32983 5.33233 6.28051 5.31188C6.2312 5.29144 6.17833 5.28092 6.12494 5.28092C6.07156 5.28092 6.01869 5.29144 5.96938 5.31188C5.92006 5.33233 5.87525 5.36229 5.83752 5.40006L4.49994 6.73815L3.16237 5.40006C3.08614 5.32383 2.98275 5.28101 2.87494 5.28101C2.76714 5.28101 2.66375 5.32383 2.58752 5.40006C2.51129 5.47629 2.46847 5.57968 2.46847 5.68748C2.46847 5.79529 2.51129 5.89868 2.58752 5.97491L4.09369 7.48057V9.34373C4.09369 9.45148 4.1365 9.55481 4.21268 9.631C4.28887 9.70718 4.3922 9.74998 4.49994 9.74998C4.60769 9.74998 4.71102 9.70718 4.78721 9.631C4.86339 9.55481 4.90619 9.45148 4.90619 9.34373V7.48057L6.41237 5.97491C6.45014 5.93718 6.4801 5.89237 6.50055 5.84305C6.52099 5.79374 6.53151 5.74087 6.53151 5.68748C6.53151 5.6341 6.52099 5.58123 6.50055 5.53192C6.4801 5.4826 6.45014 5.43779 6.41237 5.40006Z" fill="#191970"/>
</svg>
