<svg width="12" height="10" viewBox="0 0 12 10" fill="none" xmlns="http://www.w3.org/2000/svg">
<path d="M11.6875 3.17969C11.6875 6.73438 6.41691 9.61164 6.19246 9.73047C6.1333 9.76229 6.06718 9.77895 6 9.77895C5.93282 9.77895 5.8667 9.76229 5.80754 9.73047C5.58309 9.61164 0.3125 6.73438 0.3125 3.17969C0.313441 2.34496 0.645452 1.54469 1.2357 0.954445C1.82594 0.364202 2.62621 0.0321908 3.46094 0.03125C4.50957 0.03125 5.4277 0.482187 6 1.24441C6.5723 0.482187 7.49043 0.03125 8.53906 0.03125C9.37379 0.0321908 10.1741 0.364202 10.7643 0.954445C11.3545 1.54469 11.6866 2.34496 11.6875 3.17969Z" fill="#191970"/>
</svg>
