<svg width="12" height="11" viewBox="0 0 12 11" fill="none" xmlns="http://www.w3.org/2000/svg">
<path d="M11.2812 4.48438V6.51562C11.2812 6.73111 11.1956 6.93778 11.0433 7.09015C10.8909 7.24252 10.6842 7.32812 10.4688 7.32812H7.82812V9.96875C7.82812 10.1842 7.74252 10.3909 7.59015 10.5433C7.43778 10.6956 7.23111 10.7812 7.01562 10.7812H4.98438C4.76889 10.7812 4.56222 10.6956 4.40985 10.5433C4.25748 10.3909 4.17188 10.1842 4.17188 9.96875V7.32812H1.53125C1.31576 7.32812 1.1091 7.24252 0.956726 7.09015C0.804352 6.93778 0.71875 6.73111 0.71875 6.51562V4.48438C0.71875 4.26889 0.804352 4.06222 0.956726 3.90985C1.1091 3.75748 1.31576 3.67188 1.53125 3.67188H4.17188V1.03125C4.17188 0.815762 4.25748 0.609099 4.40985 0.456726C4.56222 0.304352 4.76889 0.21875 4.98438 0.21875H7.01562C7.23111 0.21875 7.43778 0.304352 7.59015 0.456726C7.74252 0.609099 7.82812 0.815762 7.82812 1.03125V3.67188H10.4688C10.6842 3.67188 10.8909 3.75748 11.0433 3.90985C11.1956 4.06222 11.2812 4.26889 11.2812 4.48438Z" fill="#191970"/>
</svg>
